<?xml version="1.0" encoding="utf-8" ?>
<svg xmlns="http://www.w3.org/2000/svg" xmlns:xlink="http://www.w3.org/1999/xlink" width="478" height="153">
	<path d="M325.467 120.541C325.18 120.618 324.795 120.498 324.5 120.449C323.957 119.474 325.128 115.539 325.188 114.129L325.193 113.994L326.116 114.625C325.995 115.803 326.126 116.978 326.05 118.128C326.006 118.785 325.567 119.767 325.467 120.541Z"/>
	<path d="M383.709 104.483C384.925 104.277 386.06 104.278 387.29 104.33C388.018 105.396 387.584 107.602 387.58 108.879C387.565 112.61 387.478 116.403 387.702 120.125L386.911 120.517L386.88 119.974L386.56 119.718C386.72 118.978 386.434 118.14 386.441 117.368C386.478 113.367 386.711 109.233 386.415 105.25C385.993 104.699 384.591 104.903 383.782 104.519L383.709 104.483Z"/>
	<path d="M298.032 110.209C298.369 110.059 298.609 109.921 298.986 110.001C299.251 111.254 298.917 112.853 299.25 114C299.285 114.122 299.494 114.252 299.532 114.375C300.018 115.965 298.989 117.812 299.875 119.437C300.866 117.105 300.366 113.733 300.373 111.167C300.374 110.539 300.23 109.42 300.521 108.86C300.697 108.523 300.775 108.493 301.125 108.378L301.234 107.739C301.843 108.971 301.455 110.54 301.523 111.876C301.559 112.59 301.86 113.219 301.939 113.906C302.145 115.692 301.913 118.284 301.396 120.016C301.341 120.2 301.23 120.337 301.097 120.47L297.666 120.342C298.821 118.421 298.681 112.766 298.13 110.543L298.032 110.209Z"/>
	<path d="M336.704 104.347C338.424 104.293 341.102 103.866 342.625 104.735C342.924 105.359 343.003 105.45 342.849 106.125C341.835 106.873 340.599 107.18 339.411 107.545C340.188 109.129 339.591 113.198 339.615 115.141C339.626 116.05 339.805 117.368 339.513 118.229L339.342 118.67C339.077 119.313 339.134 119.726 339.351 120.375C338.313 120.739 336.622 120.472 335.505 120.436C336.318 119.046 336.29 109.333 335.927 107.685C335.763 106.943 336.044 105.643 335.99 104.774L336.704 104.347ZM335.99 104.774L336.469 105.375C336.583 106.173 336.781 106.786 336.485 107.549C337.422 108.715 336.292 117.642 336.809 119.717L337.088 119.646C336.832 118.086 336.974 116.464 336.993 114.888C337.023 112.526 337.006 110.226 336.902 107.875C336.841 106.522 337.478 105.659 336.704 104.347L335.99 104.774Z"/>
	<path d="M335.99 104.774L336.704 104.347C337.478 105.659 336.841 106.522 336.902 107.875C337.006 110.226 337.023 112.526 336.993 114.888C336.974 116.464 336.832 118.086 337.088 119.646L336.809 119.717C336.292 117.642 337.422 108.715 336.485 107.549C336.781 106.786 336.583 106.173 336.469 105.375L335.99 104.774Z"/>
	<path d="M247.905 107.502L247.825 107.44C246.9 106.745 245.915 107.073 245.297 106L245.467 104.625C246.133 104.182 247.551 104.482 248.362 104.483C248.869 104.483 249.336 104.255 249.827 104.252C251.225 104.244 252.79 104.427 254.186 104.579C254.525 105.208 254.461 105.534 254.427 106.231C253.552 107.069 252.44 107.107 251.271 107.301C252.027 108.628 251.5 110.77 251.623 112.274C251.69 113.097 252.019 113.86 251.958 114.693C251.84 116.317 250.894 118.651 251.338 120.125C250.691 120.678 249.213 120.472 248.375 120.455L247.951 119.793C248.069 119.563 248.171 119.327 248.234 119.076C248.599 117.62 248.593 108.689 247.905 107.502ZM247.905 107.502C248.593 108.689 248.599 117.62 248.234 119.076C248.171 119.327 248.069 119.563 247.951 119.793C248.574 119.796 249.23 119.851 249.821 119.625C249.447 118.302 249.486 117.014 249.495 115.653C249.498 115.223 249.621 114.391 249.51 114C249.276 113.174 249.265 112.6 249.271 111.693C249.28 110.162 249.376 108.652 248.875 107.179L247.905 107.502Z"/>
	<path d="M247.905 107.502L248.875 107.179C249.376 108.652 249.28 110.162 249.271 111.693C249.265 112.6 249.276 113.174 249.51 114C249.621 114.391 249.498 115.223 249.495 115.653C249.486 117.014 249.447 118.302 249.821 119.625C249.23 119.851 248.574 119.796 247.951 119.793C248.069 119.563 248.171 119.327 248.234 119.076C248.599 117.62 248.593 108.689 247.905 107.502Z"/>
	<path d="M255.635 104.375C257.328 104.443 260.204 103.84 261.749 104.401C262.396 104.636 262.503 105.176 262.762 105.75C262.625 107.602 260.992 106.423 259.994 107.375C260.205 108.291 260.015 108.988 259.787 109.875C260.135 110.978 261.126 110.912 262 111.531C262.559 111.927 262.602 112.249 262.73 112.875C262.089 113.749 261.09 114.072 260.125 114.479C260.021 114.629 259.909 114.804 259.858 114.98C259.595 115.886 259.655 117.253 260.05 118.072C261.008 118.293 262.324 118.098 263.023 118.75C263.006 119.558 263.145 120.181 262.625 120.825C261.53 120.976 260.449 121.17 259.351 120.956C258.264 120.744 256.355 120.792 255.484 120.25C256.457 114.91 255.261 109.734 255.635 104.375Z"/>
	<path d="M356.787 104.375C357.684 104.262 358.594 104.14 359.5 104.165C360.794 104.201 362.054 104.372 362.98 105.358C363.827 106.259 364.214 106.917 364.161 108.176C364.125 109.041 363.975 110.192 363.285 110.787C363.11 110.938 363.101 111.269 363.056 111.5L363.343 111.865C364.473 113.405 364.431 116.025 364.122 117.871C363.93 119.018 363.033 119.757 362.141 120.396C360.358 120.499 357.381 121.015 355.834 119.967C355.917 118.889 355.583 118.688 355.332 117.735C355.129 116.964 355.091 115.129 355.53 114.481C355.657 114.293 356.432 114.236 356.687 114.193L358.125 114.269C358.984 115.05 358.779 116.087 358.886 117.207C358.977 118.148 359.014 118.482 359.75 119.092L360.41 118.91C360.778 117.558 360.925 115.058 360.367 113.761C360.057 113.042 359.086 112.644 358.411 112.375L358.375 111.926C358.937 111.24 359.556 111.1 360.371 110.875L360.614 108.723C360.678 107.969 360.74 106.904 360.231 106.293L359.625 106.254C358.655 107.38 359.438 108.448 358.759 109.625C357.365 110.044 356.157 109.849 354.735 109.691C355.265 108.498 355.152 106.383 355.803 105.375C356.021 105.038 356.497 104.67 356.787 104.375Z"/>
	<path d="M325.193 113.994C325.534 113.239 325.425 112.551 325.499 111.758C325.66 110.029 325.697 107.063 326.374 105.529C326.505 105.231 326.683 104.667 326.986 104.554C327.996 104.18 330.146 103.993 331.118 104.485C331.881 104.871 332.139 106.1 332.375 106.85L331.949 107.491C332.792 109.771 332.868 111.988 333.193 114.359C333.334 115.396 333.764 116.532 333.447 117.541C334.086 118.336 334.11 118.769 334.285 119.75C334.12 120.097 334.097 120.297 333.708 120.428C333.07 120.643 332.003 120.449 331.323 120.405C330.404 119.721 330.686 118.939 330.125 118.219C330.05 118.123 329.273 117.836 329.125 117.769C328.66 117.848 328.311 117.814 328.041 118.261C327.534 119.1 327.83 120.11 326.756 120.453C326.375 120.575 325.864 120.544 325.467 120.541C325.567 119.767 326.006 118.785 326.05 118.128C326.126 116.978 325.995 115.803 326.116 114.625L325.193 113.994ZM333.447 117.541C333.764 116.532 333.334 115.396 333.193 114.359C332.868 111.988 332.792 109.771 331.949 107.491C331.783 106.718 331.447 106.033 331.225 105.275L330.625 105.127L330.409 105.5L330.472 105.559C330.732 105.809 330.9 106.069 331.083 106.375L331.072 106.458C330.9 107.903 330.746 109.398 330.627 110.875L330.94 110.905L331.204 110.545C331.27 111.56 330.917 113.134 331.375 114L331.908 113.57C332.017 114.14 331.95 114.461 331.745 115C332.029 115.567 332.4 116.116 332.503 116.749L332.877 117L332.877 118.125L333.25 118.373L333.558 118.042L333.447 117.541ZM329.247 108.124C328.672 110.228 328.014 112.445 327.97 114.625C328.24 114.935 328.391 115.089 328.805 115.189L330.25 115.247C330.743 114.7 330.568 114.17 330.531 113.454L329.924 108.27L329.247 108.124Z"/>
	<path d="M333.447 117.541L333.558 118.042L333.25 118.373L332.877 118.125L332.877 117L332.503 116.749C332.4 116.116 332.029 115.567 331.745 115C331.95 114.461 332.017 114.14 331.908 113.57L331.375 114C330.917 113.134 331.27 111.56 331.204 110.545L330.94 110.905L330.627 110.875C330.746 109.398 330.9 107.903 331.072 106.458L331.083 106.375C330.9 106.069 330.732 105.809 330.472 105.559L330.409 105.5L330.625 105.127L331.225 105.275C331.447 106.033 331.783 106.718 331.949 107.491C332.792 109.771 332.868 111.988 333.193 114.359C333.334 115.396 333.764 116.532 333.447 117.541Z"/>
	<path d="M263.967 104.374C266.802 104.423 269.861 103.957 272.502 105.209C273.223 106.164 273.394 107.432 273.464 108.605C273.548 110.006 273.742 112.051 272.751 113.168L268.664 114.125C268.571 114.753 268.388 115.317 268.178 115.914C268.385 116.181 268.525 116.455 268.556 116.797C268.666 118.034 268.593 119.749 267.77 120.733L263.998 120.968L264.151 120.694C264.987 118.937 264.662 106.239 263.967 104.374Z"/>
	<path d="M346.691 104.375L350.848 104.247C351.23 105.11 351.508 106.088 351.715 107.007C352.062 108.549 352.223 110.131 352.501 111.686C352.892 113.882 354.289 118.537 353.051 120.512C352.117 120.506 351.27 120.514 350.375 120.208L349.755 118.25L348.909 117.874C348.592 117.798 348.181 117.994 347.875 118.092C347.108 118.889 347.008 119.356 346.875 120.418C345.598 120.71 344.719 120.216 343.562 120.415L343.204 120.25C344.403 118.845 344.343 116.601 344.517 114.897C344.663 113.473 344.748 111.962 344.964 110.554C345.058 109.942 345.34 109.368 345.414 108.75C345.507 107.966 345.396 107.155 345.517 106.375C345.664 105.437 345.965 104.934 346.691 104.375ZM348.331 108.374C348.122 109.147 348.203 109.798 348.111 110.557C347.946 111.908 347.581 113.246 347.428 114.625C347.823 115.093 347.973 115.049 348.559 115.161L349.671 114.92C349.97 112.722 348.986 110.698 348.92 108.555L348.331 108.374Z"/>
	<path d="M377.849 104.302C378.897 104.35 379.966 104.229 381 104.303C381.935 104.369 382.768 104.7 383.709 104.483L383.782 104.519C384.591 104.903 385.993 104.699 386.415 105.25C386.711 109.233 386.478 113.367 386.441 117.368C386.434 118.14 386.72 118.978 386.56 119.718L386.88 119.974L386.911 120.517C386.328 120.93 384.153 120.755 383.396 120.771C383.796 119.631 383.547 119.045 383.317 117.875C383.717 117.093 383.811 116.621 383.798 115.75C383.539 115.157 383.324 114.794 382.811 114.392C382.287 114.577 382.856 117.287 382.347 118.184C382.28 118.302 382.46 119.676 382.375 120.086C382.233 120.204 381.767 120.677 381.625 120.708C381.449 120.747 380.793 120.551 380.573 120.521C379.887 120.426 379.17 120.456 378.478 120.464C378.498 118.402 378.31 116.285 378.348 114.25C378.393 111.851 378.46 109.596 378.34 107.183C378.293 106.227 378.366 105.137 377.849 104.302Z"/>
	<path d="M286.962 104.621L297.231 104.252C299.242 104.223 301.16 104.04 303.041 104.676C303.485 104.826 303.807 104.633 304.185 105C303.989 105.612 303.829 106.222 303.303 106.636L303.221 106.699C302.598 107.187 301.965 107.461 301.234 107.739L301.125 108.378C300.775 108.493 300.697 108.523 300.521 108.86C300.23 109.42 300.374 110.539 300.373 111.167C300.366 113.733 300.866 117.105 299.875 119.437C298.989 117.812 300.018 115.965 299.532 114.375C299.494 114.252 299.285 114.122 299.25 114C298.917 112.853 299.251 111.254 298.986 110.001C298.609 109.921 298.369 110.059 298.032 110.209C298.11 109.983 298.171 109.754 298.182 109.515C298.222 108.695 298.037 107.709 297.48 107.093C295.265 106.787 294.231 106.514 291.988 107.125C291.261 108.064 291.412 109.365 290.987 110.5L291.25 110.967C292.154 110.998 292.608 111.136 293.375 111.615C293.708 112.306 293.735 112.477 293.69 113.244C292.953 113.85 291.906 113.991 290.999 114.212C291.269 114.731 291.482 115.624 291.424 116.213C291.365 116.802 291.048 117.328 291.327 117.909C291.434 118.131 293.235 118.377 293.875 118.623C294.102 119.226 294.268 119.726 294.269 120.375C293.044 121.264 288.369 120.736 286.681 120.659C286.83 120.444 286.969 120.213 287.061 119.967C287.252 119.458 287.192 118.824 287.25 118.286C287.503 115.906 287.294 113.708 287.277 111.348C287.263 109.404 287.696 106.393 286.962 104.621Z"/>
	<path d="M374.13 104.375C374.798 104.32 375.804 104.095 376.375 104.495C376.457 104.745 376.532 105.007 376.555 105.27C376.69 106.817 376.307 108.213 376.234 109.709C376.141 111.621 376.438 119.32 375.471 120.456L372.167 120.419L372.232 120.306C372.836 119.185 372.498 117.314 372.125 116.153L371.461 115.875L370.974 116.25L371.012 117.098C371 117.976 370.653 119.426 370.012 120.055C368.911 120.495 368.212 120.51 367.052 120.294C366.403 117.072 366.648 113.415 366.687 110.138C366.711 108.113 367.406 106.399 366.32 104.54L369.875 104.503C370.475 105.528 370.172 106.148 370.306 107.229C370.354 107.618 370.577 108.134 370.575 108.5C370.573 108.901 370.177 109.702 370.099 110.189L370.5 110.49C371.09 110.071 371.25 108.829 371.48 108.154C371.832 107.12 372.319 106.12 372.769 105.125C373.257 104.941 373.689 104.649 374.13 104.375Z"/>
	<path d="M239.421 104.375L243.292 104.397C243.491 104.683 243.665 105.024 243.706 105.375C243.855 106.662 243.609 108.205 243.585 109.514C243.526 112.707 243.801 116.351 243.236 119.463C243.157 119.897 242.985 120.232 242.698 120.568C241.553 120.799 240.186 120.717 239.009 120.765C239.783 119.492 239.429 116.204 239.125 114.737L238.625 114.476L238.074 114.797C238.072 116.668 238.171 118.703 237.875 120.548L236.77 120.688L233.747 120.636L233.767 120.564C234.309 118.455 234.287 116.184 234.32 114.017C234.358 111.561 234.426 109.138 234.095 106.708C233.983 105.886 234.13 105.265 233.678 104.504L237.698 104.546C238.453 106.212 237.802 108.099 238.076 109.84C238.186 110.532 238.335 110.702 238.875 111.106L239.375 110.894C239.145 108.756 239.287 106.517 239.421 104.375Z"/>
	<path d="M228.078 104.131C228.513 104.193 231.657 104.494 231.787 104.673C232.119 105.127 232.283 105.689 232.184 106.25C231.644 109.297 231.487 111.984 231.682 115.094C231.738 116.002 232.11 117.152 232.06 118C232.011 118.823 231.707 119.855 231.372 120.611C230.64 120.636 229.149 120.874 228.573 120.5C228.565 118.993 228.296 117.713 227.981 116.25L227.5 115.937L227.029 116.125C226.497 117.681 226.838 119.257 225.687 120.597C224.817 120.609 223.832 120.717 222.988 120.489L222.375 120.25L222.798 118C222.239 116.868 222.332 115.494 222.323 114.261C222.306 111.947 222.461 109.518 222.17 107.224L222.199 107.147C222.434 106.499 222.532 104.628 222.631 104.579C223.461 104.164 225.236 104.401 226.214 104.347C226.616 105.011 226.34 109.331 226.089 110.293C225.969 110.756 225.726 111.201 225.457 111.594C227.257 109.974 228.089 107.279 228.272 104.875C228.291 104.617 228.188 104.359 228.078 104.131ZM222.17 107.224C222.461 109.518 222.306 111.947 222.323 114.261C222.332 115.494 222.239 116.868 222.798 118L222.375 120.25L222.988 120.489L223.623 119.625C223.65 115.889 223.526 112.119 223.504 108.375C223.499 107.552 223.782 105.741 223.375 105.127L223.055 105.277L223.125 105.623C223.214 106.343 223.361 107.071 222.913 107.646L222.17 107.224Z"/>
	<path d="M222.17 107.224L222.913 107.646C223.361 107.071 223.214 106.343 223.125 105.623L223.055 105.277L223.375 105.127C223.782 105.741 223.499 107.552 223.504 108.375C223.526 112.119 223.65 115.889 223.623 119.625L222.988 120.489L222.375 120.25L222.798 118C222.239 116.868 222.332 115.494 222.323 114.261C222.306 111.947 222.461 109.518 222.17 107.224Z"/>
	<path d="M280.267 104.334L284.254 104.524C284.975 105.661 284.737 106.984 284.795 108.316C284.843 109.448 285.01 110.56 285.035 111.701C285.069 113.242 285.232 115.003 284.073 116.188L284.011 116.25L284.336 117.444L284.893 118.286C284.738 119.114 284.681 119.949 284 120.523C282.529 121.181 281.635 119.946 280.375 119.981C279.881 119.994 278.932 120.57 278.398 120.697C277.509 120.907 275.899 120.432 274.977 120.281C275.616 118.361 275.358 116.3 275.332 114.302C275.289 111.09 275.169 107.82 275.57 104.625C276.097 104.349 276.855 104.403 277.442 104.375C277.981 104.369 278.986 104.202 279.35 104.677C279.423 104.773 279.461 105.496 279.486 105.679C279.622 106.678 279.723 109.844 280.375 110.452L280.516 110.171C280.838 109.345 280.606 105.118 280.267 104.334Z"/>
	<path d="M310.125 120.487L309.625 120.592C309.141 119.461 309.478 117.32 309.483 116.034C309.493 113.46 309.448 110.885 309.435 108.311C309.431 107.374 309.244 105.846 309.58 104.988C309.664 104.773 309.798 104.597 309.954 104.429C311.23 104.059 312.927 103.946 314.119 104.653C314.92 105.127 315.225 106.277 315.414 107.135C315.675 108.323 316.089 110.229 315.698 111.376C316.967 109.232 316.871 106.968 317.035 104.558C318.859 104.38 320.557 104.393 322.382 104.565C322.985 105.538 322.817 106.751 322.807 107.854C322.785 110.12 322.736 112.385 322.716 114.651C322.703 116.191 322.951 117.937 322.586 119.437C322.487 119.843 322.324 120.205 322.065 120.533L318.603 120.495C319.456 118.288 318.771 115.916 318.956 113.625L318.5 113.331C317.474 114.415 317.612 117.305 317.498 118.763C317.476 119.055 317.488 119.899 317.363 120.111C317.334 120.16 314.879 120.562 314.633 120.573C314.933 118.792 314.746 115.885 313.967 114.25C313.666 113.617 313.011 113.142 312.493 112.678C313.464 114.525 313.864 117.257 313.241 119.271L312.847 120.34C312.149 120.675 311.194 120.506 310.437 120.467L310.125 120.487ZM310.125 120.487L310.437 120.467C310.846 119.243 310.595 117.961 310.605 116.707C310.627 113.933 310.532 111.178 310.519 108.4C310.514 107.342 310.313 105.789 310.991 104.924L311.032 104.875L310.699 104.835C310.595 104.963 310.289 105.255 310.245 105.393C309.933 106.378 310.272 108.679 310.271 109.783C310.267 113.348 310.131 116.921 310.125 120.487Z"/>
	<path d="M310.125 120.487C310.131 116.921 310.267 113.348 310.271 109.783C310.272 108.679 309.933 106.378 310.245 105.393C310.289 105.255 310.595 104.963 310.699 104.835L311.032 104.875L310.991 104.924C310.313 105.789 310.514 107.342 310.519 108.4C310.532 111.178 310.627 113.933 310.605 116.707C310.595 117.961 310.846 119.243 310.437 120.467L310.125 120.487Z"/>
	<path fill="#2A7DD5" d="M220.968 31.8746C224.102 31.4411 230.248 31.2438 232.954 32.9301C233.631 33.3521 234.535 34.1174 234.714 34.921C234.959 35.2182 235.109 35.5035 235.194 35.8819C235.516 37.3236 235.679 38.8521 235.751 40.3269C235.905 43.4629 235.779 46.6277 235.827 49.7682C235.966 58.9425 236.243 68.1445 235.935 77.3122C235.886 78.7777 236.159 81.9231 235.408 83.1317C241.845 83.2492 248.294 83.1015 254.734 83.1654C258.12 83.199 261.515 83.0962 264.875 83.5677C265.384 84.3362 265.242 85.0556 265.158 85.9253L264.324 86.4424L227.355 86.4775L227.46 86.3526C228.805 84.6275 227.678 79.6359 227.71 77.5C227.728 76.2299 228.035 74.853 228.072 73.5295C228.254 66.9348 228.144 60.3241 228.092 53.7277C228.059 49.3717 228.223 44.8866 227.764 40.5529C227.655 39.5249 227.222 38.6074 227.088 37.612L227.017 37.1378C226.287 33.3226 222.742 34.7104 220.231 32.9614C220.054 32.8382 220.076 32.5828 220.042 32.375L220.968 31.8746Z"/>
	<path fill="#2A7DD5" d="M286.122 30.375C291.145 30.5734 297.344 30.9296 301.375 34.2883C302.284 35.046 304.062 36.6387 304.436 37.75C304.541 38.0603 304.479 38.6456 304.535 39C304.712 40.1196 305.013 41.1745 305.121 42.3155C305.348 44.7294 305.328 48.526 303.744 50.4475C303.8 50.1174 303.856 49.7477 303.809 49.4131C303.69 48.5835 303.157 47.7543 302.92 46.9421C302.613 45.8859 302.543 44.8006 302.162 43.7513C301.155 40.9724 298.438 37.5887 296.11 35.7475C293.643 33.7954 288.939 33.4129 285.896 33.7778C281.247 34.3352 279.758 36.8242 277.089 40.2329C277.571 41.1002 277.419 41.9217 277.482 42.8738C277.58 44.3715 278.682 46.4557 279.702 47.5493C281.891 49.8968 284.85 51.4925 287.579 53.1241C289.697 54.3909 291.739 55.792 293.86 57.0602C296.919 58.8889 300.084 60.6254 302.77 62.9938C305.639 65.5236 306.982 69.0948 307.183 72.8535C307.358 76.1187 306.407 79.1887 304.219 81.6384C300.039 86.3195 296.066 87.4203 289.937 87.7582L286.161 87.7249C281.472 87.4619 275.238 85.5462 272.05 81.951C269.942 79.5735 270.076 73.7403 270.273 70.6503C270.314 69.9921 270.376 69.2803 270.875 68.8374C272.498 69.9781 272.712 73.0898 273.41 74.8959C274.672 78.1636 277.59 81.7783 280.864 83.2061C284.533 84.8063 290.652 84.879 294.365 83.4251C295.822 82.8544 297.707 81.0088 298.332 79.5727C298.989 78.7045 299.269 77.2122 299.157 76.1502C298.958 74.2701 298.621 72.4586 297.606 70.8342C295.781 67.9149 292.532 66.0903 289.637 64.3894C285.434 61.9191 280.735 59.685 276.946 56.6108C273.35 53.6939 270.941 50.1811 270.466 45.4601C270.109 41.9115 270.844 38.7738 273.157 35.9865C276.446 32.0243 281.211 30.8206 286.122 30.375Z"/>
	<path fill="#2A7DD5" d="M171.431 31.874C176.781 31.3498 182.487 31.7293 187.882 31.7169C193.887 31.703 200.158 31.326 206.137 31.788C207.52 31.8948 209.675 32.2562 210.887 32.8868C212.056 33.4953 213.14 34.907 213.503 36.1689C214.032 38.0058 213.883 40.238 213.821 42.1265C213.799 42.7864 213.851 43.7694 213.513 44.3489C213.237 44.8211 212.996 44.8468 212.5 44.9621L212.153 44.5743C211.821 42.1319 211.269 39.8065 209.48 38.0313C208.484 37.043 207.271 36.0462 205.923 35.5963C204.581 35.1486 202.752 35.1692 201.338 35.0833C196.272 34.7757 191.095 35.0148 186.017 35.0085C186.236 35.2938 186.443 35.6375 186.492 36C187.006 39.8425 186.498 44.2529 186.471 48.1466C186.455 50.4696 186.745 52.8525 186.519 55.1638C186.471 55.6491 186.312 56.0398 186.008 56.4248L208.514 56.4591L208.639 56.6253C208.764 57.8756 209.192 58.7171 208.663 59.9376C206.263 60.2591 203.335 59.9286 200.881 59.9154C195.962 59.889 191.044 59.9762 186.125 59.9747L186.362 60.6173C186.711 61.8314 186.848 66.0025 186.267 67.0338C186.405 67.2023 186.529 67.3819 186.604 67.5878C186.98 68.6152 186.662 70.9117 186.631 72.0495C186.569 74.2696 186.553 76.4808 186.533 78.7016C186.52 80.2187 186.651 81.8369 185.997 83.2465C189.405 83.1647 192.815 83.1979 196.224 83.1741C201.342 83.1385 207.413 83.4553 211.432 79.6549C212.923 78.246 213.929 74.8864 215.75 74.088L216.163 74.5142C216.142 75.4685 215.792 76.3121 215.6 77.2343C215.02 80.0155 214.393 82.5342 212.3 84.5975C211.403 85.4821 210.452 86.0327 209.22 86.3134C206.207 86.9995 202.585 86.7272 199.486 86.7349C192.332 86.7526 185.192 86.5184 178.051 86.4905C178.772 84.7228 178.409 81.939 178.41 80.0279C178.411 75.9438 178.414 71.8598 178.419 67.7758C178.429 59.1829 178.81 50.5004 178.442 41.9169C178.375 40.354 178.151 38.6286 177.731 37.125C177.155 35.0653 175.449 34.0789 173.473 33.666C172.654 33.4949 171.9 33.5469 171.144 33.125L170.996 32.375L171.431 31.874Z"/>
	<path fill="#2A7DD5" d="M312.95 31.8748C315.812 31.5063 319.101 31.6863 321.951 32.0413C323.021 32.1744 324.396 32.341 325.264 33.0399C326.615 34.128 327.326 36.9698 327.466 38.625C327.74 41.8751 328.484 54.5733 326.829 56.5381C332.553 56.4125 338.303 56.5217 344.03 56.5135C346.642 56.5098 349.398 56.6802 351.987 56.3872L352.012 56.2673C352.672 52.9228 351.793 49.2477 351.83 45.9061C351.866 42.6786 353.446 34.2928 351.718 31.7628L359.796 31.7949L360.067 32.1915C360.427 32.8403 360.242 34.2101 360.244 34.986C360.25 37.882 360.152 40.7996 360.25 43.6927C360.625 54.6406 360.105 65.5749 360.412 76.515C360.439 77.469 360.365 78.6035 360.54 79.5374C360.761 80.7175 361.747 81.68 361.382 82.9298C362.115 83.2651 362.784 83.8733 363.516 84.1367C364.724 84.571 366.108 85.0463 367.25 84.4878L367.568 84.625L367.432 86.125C366.717 86.8746 366.199 86.6953 365.187 86.7512L354.906 86.1951C354.7 85.222 353.161 83.6769 352.583 82.7067L352.617 82.5687C352.799 81.7773 352.599 81.0027 352.552 80.2049C352.456 78.589 352.38 76.9709 352.312 75.3535C352.126 70.9441 352.487 66.4796 352.238 62.0978C352.196 61.3583 352.138 60.6305 351.735 59.9888L327.263 59.9187L327.445 60.5787C328.114 63.7247 327.66 67.8512 327.679 71.0938C327.707 75.816 328.046 80.8146 327.705 85.5C327.68 85.8337 327.493 86.1796 327.313 86.4542L319.073 86.4998C319.319 85.9816 319.405 85.451 319.427 84.8802C319.557 81.5058 319.305 78.1702 319.247 74.8074C319.167 70.1128 319.321 65.3762 319.313 60.6746C319.305 56.4534 319.294 52.2321 319.283 48.0109C319.277 45.5689 319.403 43.0198 319.172 40.5895C318.844 37.1275 318.061 33.9161 314.024 33.5476C313.297 33.4811 312.608 33.6219 312.007 33.125L312.025 32.375L312.95 31.8748Z"/>
	<path fill="#2A7DD5" d="M430.142 31.8749L432.099 31.7964C435.967 31.7244 439.844 31.7774 443.714 31.7722C450.745 31.7628 457.904 31.7518 464.373 34.9201C465.616 35.5288 467.07 36.1927 468.068 37.167C470.87 39.9015 471.96 44.0475 471.981 47.8678C472.003 51.9509 470.745 55.9002 467.835 58.8352C462.334 64.383 453.707 64.1985 446.437 64.2253C445.625 64.2287 444.748 64.0462 444.093 64.5402L444.119 64.6821C444.535 67.062 444.903 85.1277 443.983 86.4134C443.29 86.6213 442.173 86.4754 441.437 86.4761C439.555 86.4778 437.672 86.4772 435.789 86.4762L435.998 86.1821C436.346 85.5768 436.451 84.7097 436.474 84.0265C436.626 79.4008 436.392 74.6183 436.259 69.9897C436.23 68.9924 436.013 67.9962 436.013 67C436.012 65.7815 436.233 64.5592 436.246 63.3281C436.301 57.9055 436.235 52.4573 436.234 47.0272C436.233 43.996 436.578 39.9879 435.676 37.0918C434.645 33.7854 431.538 34.1611 429.09 32.9113L429.052 32.2948L430.142 31.8749ZM448.597 34.8746L443.687 35.4107C443.963 35.8167 444.215 36.2747 444.276 36.7684C444.915 41.9793 444.486 47.6348 444.473 52.9028C444.468 54.9609 444.783 57.7115 444.375 59.6909L444.074 60.75C444.71 61.306 445.12 61.1141 445.951 61.0587C446.53 61.0201 447.162 60.8196 447.719 60.8201C449.765 60.8219 453.954 61.6042 455.545 59.9217L455.585 59.8749C458.274 58.8658 460.569 56.4943 461.75 53.8855C463.216 50.6438 463.196 45.9365 461.931 42.6469C460.551 39.0617 459.015 37.4702 455.505 35.9201C453.285 34.939 451.013 34.5487 448.597 34.8746Z"/>
	<path fill="#2A7DD5" d="M51.4457 39.7313C54.4619 41.3731 57.4214 43.0838 60.4194 44.7517C62.8632 46.1113 65.1924 47.2656 67.4685 48.9174C64.3786 50.1701 61.6033 51.895 58.7435 53.5769C55.261 55.6251 51.7351 57.6634 48.2138 59.6449C42.3799 62.9278 36.4984 66.1543 30.734 69.5578C29.4869 70.2941 27.7417 70.9731 26.7107 71.9612C26.3203 72.3354 26.0497 72.7122 25.978 73.2642C25.7957 74.6682 25.9365 76.2983 25.9323 77.7232C25.9239 80.6563 25.9232 83.5894 25.9265 86.5225C25.9391 97.4754 26.151 108.459 25.8625 119.407L25.375 119.502C20.2707 117.095 15.1432 114.289 10.587 110.953C9.63151 95.3477 10.1759 79.5112 10.2768 63.8591C12.1638 61.909 14.451 60.7605 16.7859 59.4496C19.0472 58.1801 21.2787 56.8458 23.5348 55.5623C27.8796 53.0907 32.1827 50.5379 36.531 48.064C41.3867 45.3014 46.3519 41.9856 51.4457 39.7313Z"/>
	<path fill="#2A7DD5" d="M51.4653 16.5123L52.25 16.5111C53.0616 17.2728 53.9815 17.5998 54.9344 18.1364C57.3531 19.4984 59.8856 20.633 62.2922 22.0159C69.8116 26.3368 77.1783 30.9508 84.7458 35.2003C87.4366 36.7113 89.7351 38.388 92.6639 39.4885L92.8049 58.1351L51.8576 34.3657C51.7245 34.3439 51.5021 34.2743 51.375 34.2867C51.1729 34.3065 50.5387 34.7759 50.336 34.894C49.2912 35.503 48.2417 36.1029 47.1854 36.6918C34.8559 43.5658 22.8394 51.0185 10.4922 57.8477C10.1264 54.7615 10.2148 51.5614 10.2065 48.4556C10.1989 45.6581 10.0594 42.7572 10.565 39.9963C18.6176 34.4729 27.3701 29.9582 35.8263 25.0737C40.9363 22.1221 45.8281 18.3959 51.4653 16.5123Z"/>
	<path fill="#2A7DD5" d="M133.08 93.2105L133.436 93.3239C133.893 95.7683 133.4 98.7676 133.324 101.25C133.222 104.546 133.243 107.849 133.161 111.146L91.6478 135.032L50.9057 111.539L50.7606 93.2407L91.6516 116.819C101.932 111.366 111.856 105.212 121.97 99.4536C125.671 97.3463 129.166 94.9114 133.08 93.2105Z"/>
	<path fill="#2A7DD5" d="M46.1211 66.2075L46.4247 66.4582C46.6663 68.8179 46.4873 71.356 46.4883 73.732C46.4901 78.4015 46.4878 83.071 46.4909 87.7405C46.4946 93.2403 46.4982 98.74 46.4952 104.24C46.4935 107.45 46.6646 110.771 46.3103 113.961L87.7649 137.561C84.2273 139.633 80.5839 141.54 77.0247 143.584C75.1391 144.668 73.4807 145.452 71.7763 146.85C70.8507 146.547 69.8142 145.54 68.9446 145.023C66.4531 143.542 63.8598 142.171 61.3466 140.708C51.9066 135.212 42.2297 129.999 32.9351 124.273C32.2644 123.86 31.5673 123.449 31.1602 122.75C29.9889 120.736 30.5237 93.7298 30.5154 89.9018C30.5088 86.8222 30.503 83.7426 30.5086 80.663C30.5114 79.1003 30.3234 77.2338 30.7156 75.7226C30.8304 75.2801 31.0844 74.9645 31.4561 74.6911C32.4488 73.9609 33.7321 73.4925 34.8009 72.8562C38.5629 70.6165 42.3412 68.4136 46.1211 66.2075Z"/>
	<path fill="#2A7DD5" d="M117.624 31.445C120.671 32.6055 123.132 34.2243 125.911 35.875C128.357 37.3282 130.836 38.6741 133.224 40.2282L133.211 88.0718L91.4711 111.889C86.5906 108.506 81.4497 105.339 76.2801 102.377C79.0501 100.976 81.5752 99.2771 84.2688 97.7683C91.7233 93.5928 99.1702 89.3426 106.551 85.0454C108.954 83.6459 111.409 82.327 113.804 80.9239C115.175 80.1209 116.275 79.2067 117.768 78.5552C117.087 74.2004 117.56 69.4328 117.505 65.0073C117.363 53.8132 117.221 42.6389 117.624 31.445Z"/>
	<path fill="#2A7DD5" d="M71.7364 4.54394C74.54 5.70619 76.9731 7.25896 79.5958 8.75571C83.6906 11.0927 87.7624 13.4634 91.8371 15.8347C98.8726 19.929 106.167 23.6585 112.883 28.2706C113.49 33.7428 113.278 39.4036 113.315 44.9136C113.385 55.1437 113.338 65.3728 113.262 75.6027C107.732 78.0049 102.63 81.6688 97.3546 84.5833C96.9061 83.8601 97.0604 49.4479 97.0577 45.8345C97.0562 43.7906 97.0756 41.7479 97.1127 39.7043C97.1285 38.8356 97.3249 37.5624 96.9646 36.7846C95.2238 36.3034 93.7996 35.1386 92.2749 34.226C90.0742 32.9087 87.8293 31.6529 85.6112 30.3636C77.8924 25.8771 70.0716 21.5797 62.3214 17.1528C60.334 16.0177 58.4953 14.6624 56.4938 13.5349C58.4213 11.7945 60.4401 10.6774 62.6528 9.37331C65.668 7.5962 68.5346 5.98314 71.7364 4.54394Z"/>
	<path fill="#2A7DD5" d="M395.236 30.3749L395.805 30.3203C403.058 29.8551 409.461 31.3305 415 36.2522C420.989 41.574 423.967 49.1653 424.408 57.0457C424.762 63.3608 423.608 68.1402 420.779 73.7677C419.6 76.1131 418.363 78.2741 416.593 80.2433C412.67 84.6076 406.946 87.7192 401.032 88.0222L400.747 88.1268C395.956 88.9559 388.296 86.9007 384.494 84.1298C382.161 82.4301 379.253 79.9715 377.563 77.6143C375.054 74.1162 373.287 68.5415 372.663 64.3365C371.342 55.4335 373.431 46.7219 378.773 39.5118C382.792 34.0874 388.689 31.342 395.236 30.3749ZM395.751 33.6249C391.421 34.771 387.315 37.313 384.996 41.2965C383.684 43.5488 383.027 45.8301 382.409 48.3357C380.694 55.2958 380.736 63.6134 382.62 70.5645C384.044 75.821 386.663 80.2973 391.53 83.0651C393.972 84.4536 397.264 85.2324 400.088 84.6305L400.308 84.5545C404.153 84.2142 407.634 81.8624 410.084 78.9482C415.302 72.7393 415.886 62.0658 415.161 54.3317C414.593 48.2664 412.752 40.8382 407.833 36.7359C404.639 34.0731 400.01 33.1877 395.965 33.5993L395.751 33.6249Z"/>
</svg>
