<?xml version="1.0" encoding="utf-8" ?>
<svg xmlns="http://www.w3.org/2000/svg" xmlns:xlink="http://www.w3.org/1999/xlink" width="478" height="153">
	<path d="M336.607 104.125C338.329 104.07 341.861 103.563 343.255 104.625C343.25 105.507 343.302 106.206 342.701 106.919L340.75 107.058C339.864 107.763 340.031 108.601 340.031 109.671C340.031 111.872 340.044 114.074 340.032 116.276C340.027 117.289 340.175 118.256 339.565 119.127C339.806 119.57 339.907 119.87 339.919 120.375L339.5 120.799L335.322 120.778C335.823 119.945 335.624 118.62 335.648 117.676C335.725 114.616 335.737 111.533 335.673 108.473C335.65 107.366 335.408 105.941 335.766 104.89C335.949 104.352 336.12 104.366 336.607 104.125Z"/>
	<path d="M245.478 104.375C247.62 104.228 252.89 103.609 254.558 104.75L254.451 106.25C253.785 106.997 253.58 106.908 252.625 107.007C251.885 107.821 252.014 108.731 252.016 109.783C252.02 111.815 252.578 117.435 251.559 118.877C251.864 119.423 251.958 119.726 251.863 120.349C250.946 121.078 248.729 120.818 247.513 120.855C247.659 120.649 247.788 120.432 247.866 120.191C248.1 119.46 248.013 108.585 247.848 107.875C247.799 107.664 247.546 107.327 247.434 107.125C246.829 106.977 246.244 106.964 245.625 106.95L245.193 106.375C245.12 105.603 245.048 105.067 245.478 104.375Z"/>
	<path d="M255.615 104.375L255.923 104.333C257.365 104.165 261.716 103.78 262.764 104.625C262.807 105.434 262.915 106.165 262.445 106.875L260.573 107.089C259.9 108.057 260.034 109.331 259.956 110.5C260.48 111.356 261.716 110.966 262.638 111.608C262.628 111.893 262.684 113.212 262.575 113.375C262.023 114.202 260.917 113.704 260.16 114.474C260.06 115.493 259.743 116.918 260.123 117.875L261.31 118.103C262.111 118.21 262.499 118.153 263.091 118.745C263.111 119.406 263.271 120.338 262.831 120.875C260.465 121.539 257.4 120.926 254.999 120.651C256.059 119.242 255.522 109.997 255.498 107.744C255.486 106.648 255.211 105.413 255.615 104.375Z"/>
	<path d="M267.357 104.125C269.113 104.028 271.154 104.085 272.746 104.875C273.22 105.449 273.487 106.253 273.589 106.984C273.833 108.731 273.83 111.868 272.75 113.262C271.364 114.034 269.876 114.072 268.332 114.195C268.478 114.44 268.615 114.728 268.664 115.01C268.867 116.175 268.931 118.408 268.22 119.378C268.441 119.781 268.574 120.051 268.588 120.521C267.462 121.258 265.319 120.922 263.95 120.93C264.075 120.747 264.173 120.559 264.235 120.347C264.752 118.604 264.745 105.797 264.014 104.372L267.357 104.125Z"/>
	<path d="M357.611 104.125C359.139 103.971 361.026 103.867 362.481 104.412C363.171 104.671 363.844 105.434 364.14 106.107C365.069 108.223 364.117 109.631 363.391 111.529C363.569 111.686 363.736 111.851 363.875 112.044C364.827 113.372 364.716 116.381 364.446 117.956C364.312 118.732 363.879 119.871 363.191 120.31C361.372 121.47 357.499 120.695 355.519 120.282C355.773 119.445 355.107 117.955 355.029 117.004C354.944 115.968 354.641 114.932 355.328 114.125L356.687 114.023L358.625 114.11C359.672 115.412 358.405 117.482 359.302 118.875L359.997 118.937L360.467 118.375C360.525 116.713 360.801 114.563 359.875 113.165L358.435 112.875C357.919 112.356 357.937 112.36 357.924 111.625C358.493 111.064 358.861 111.113 359.625 111.007C360.07 110.629 360.168 110.472 360.327 109.906C360.633 108.819 360.673 107.227 360.125 106.248L359.5 106.239C358.644 107.311 359.442 108.711 358.564 109.884L358.523 109.937L354.459 109.972C355.396 108.691 354.683 107.089 355.425 105.704C355.994 104.643 356.533 104.452 357.611 104.125Z"/>
	<path d="M327.129 104.125L331.592 104.122C332.411 105.243 332.35 107.105 332.574 108.462C333.181 112.148 333.544 116.293 334.523 119.875C334.347 120.37 334.357 120.473 333.875 120.737C332.862 120.74 331.267 120.945 330.414 120.375C330.439 119.761 330.281 119.211 330.124 118.625L329.875 118.213C329.118 118.112 328.807 118.04 328.078 118.325C327.88 119.017 327.914 119.748 327.907 120.462C327.024 121.186 324.586 120.811 323.366 120.836C324.692 119.368 325.435 110.688 325.709 108.278C325.827 107.239 325.813 105.956 326.167 104.98C326.391 104.363 326.552 104.392 327.129 104.125ZM329.172 108.374L328.072 114.5C328.291 114.778 328.361 114.93 328.715 115.047L330.125 114.855C330.487 114.064 329.889 109.546 329.637 108.482L329.172 108.374Z"/>
	<path d="M346.303 104.125L350.987 104.081L351.477 104.625C352.262 108.691 352.974 112.924 353.476 117.036C353.625 118.258 354.094 119.51 353.659 120.716C352.61 120.852 351.114 121.024 350.125 120.632L349.682 118.874L349.689 118.403C349.097 118.055 348.672 118.107 348 118.085C347.254 118.702 347.449 119.561 347.321 120.502C346.142 121.325 344.184 120.805 342.745 120.698C344.429 118.733 344.208 115.176 344.515 112.689C344.78 110.538 345.161 108.404 345.427 106.25C345.557 105.201 345.452 104.786 346.303 104.125ZM348.137 108.624C348.351 109.929 348.071 111.405 347.824 112.698C347.673 113.488 347.344 114.126 347.666 114.875L348.804 115.032L349.754 114.625L348.859 108.875C348.628 108.779 348.386 108.655 348.137 108.624Z"/>
	<path fill="#FEFEFE" d="M423.585 51.7255C425.737 53.3119 428.156 54.4954 430.426 55.8966C431.857 56.7796 433.489 58.3322 435.125 58.709L435.441 58.4653C435.584 58.6603 435.951 59.0397 436.017 59.25C436.151 59.6778 436.036 60.6331 436.04 61.1077C436.055 62.5846 436.306 64.5597 436.018 65.9876C435.965 66.2527 435.781 66.5212 435.621 66.7345L435.25 66.5644L435.191 66.5872C433.668 67.1575 431.639 66.9307 430.016 67.0946C428.155 67.2824 426.36 67.8434 424.531 68.1922C424.021 68.2892 423.613 68.1104 423.075 68.2558L423.366 67.838C424.739 64.7965 424.892 54.8179 423.585 51.7255Z"/>
	<path d="M374.296 104.125L376.499 104.115L376.617 104.603C377.01 106.695 376.455 109.449 376.389 111.609C376.306 114.286 376.538 117.098 376.253 119.75C376.21 120.146 375.996 120.543 375.777 120.868L372.03 120.782C372.161 120.529 372.268 120.269 372.324 119.987C372.694 118.112 372.371 116.018 371.286 114.457C371.849 116.082 370.788 118.754 370.411 120.474C369.755 121.016 368.549 120.781 367.687 120.761L367.125 120.69C367.006 120.572 366.765 120.386 366.682 120.25C366.543 120.02 366.625 118.317 366.616 117.981C366.538 114.748 366.534 111.52 366.595 108.286C366.618 107.077 366.874 105.407 366.274 104.326L369.99 104.175C370.137 104.337 370.27 104.511 370.355 104.714C370.706 105.548 370.777 110.103 370.411 110.896C371.528 109.037 371.95 106.82 372.56 104.75C373.132 104.203 373.538 104.24 374.296 104.125Z"/>
	<path d="M233.656 104.375C235.103 104.202 236.464 104.18 237.915 104.234C238.805 105.473 238.04 108.904 238.375 110.55L238.875 110.847L239.293 110.375C239.303 108.661 239.636 105.914 238.929 104.386L243.461 104.28L243.628 104.529C243.957 105.169 243.882 119.707 243.514 120.752L242.526 121.034C241.476 121.017 240.388 121.065 239.375 120.754C239.302 120.674 239.058 120.462 239.028 120.375C238.993 120.274 239.206 119.409 239.227 119.225C239.326 118.373 239.292 117.488 239.252 116.633C239.214 115.82 239.354 114.797 238.75 114.246C237.478 115.686 239.046 119.208 238.009 120.894L237.973 120.949L233.243 120.923C234.502 119.317 233.956 106.945 233.656 104.375Z"/>
	<path d="M222.197 104.125C223.611 103.987 224.832 104.062 226.232 104.294L226.391 104.744C226.629 105.503 226.397 106.072 226.363 106.827C226.296 108.309 226.574 109.635 225.836 111.01L226.7 109.982C227.153 109.324 228.343 104.869 228.185 104.079L231.776 104.159L231.998 104.539C232.312 105.344 232.018 107.44 232.02 108.381C232.023 110.795 232.009 113.212 232.059 115.625C232.09 117.143 232.486 118.95 231.881 120.376L231.887 120.741C231.337 121.246 228.652 120.972 227.779 120.969L228.031 120.523C228.407 119.55 228.068 116.978 227.673 116.016L227.375 116.061C226.531 117.61 227.267 119.506 226.324 120.974L226.285 121.033L221.793 120.914C222.414 119.695 222.079 117.744 222.094 116.389C222.14 112.327 221.884 108.17 222.197 104.125Z"/>
	<path d="M280.032 104.394L284.645 104.192C284.801 104.432 284.963 104.703 285.005 104.991C285.137 105.891 285.035 106.975 285.043 107.89C285.06 109.849 285.591 114.699 284.61 116.114C284.817 116.367 285.006 116.673 285.057 117C285.23 118.106 285.317 119.937 284.647 120.862C283.112 120.923 281.328 121.192 279.984 120.312L279.929 120.275L279.739 120.5C278.764 121.33 275.986 120.807 274.744 120.716C275.412 119.74 275.167 117.903 275.156 116.745C275.13 114.106 275.169 111.469 275.175 108.83C275.178 107.41 274.965 105.729 275.44 104.375L279.092 104.276C279.939 105.575 279.598 108.623 279.682 110.271L280.125 110.554L280.486 110.25C280.543 108.665 280.825 105.754 280.032 104.394Z"/>
	<path d="M377.982 104.125C379.058 103.954 380.411 103.963 381.5 104.043C382.192 104.094 382.716 104.348 383.428 104.212C384.761 103.958 386.233 104.049 387.59 104.032C387.756 104.246 387.897 104.486 387.952 104.755C388.107 105.514 387.974 106.505 387.976 107.289C387.979 109.159 387.959 111.027 387.943 112.896C387.924 115.09 388.21 117.496 387.916 119.664C387.847 120.168 387.603 120.65 387.323 121.068L384.64 121.037C384.061 121.002 383.782 120.794 383.408 120.375C383.549 119.498 383.576 119.013 383.152 118.198L383.113 118.126C383.246 117.949 383.36 117.761 383.441 117.554C383.91 116.362 383.318 114.832 382.851 113.733C382.775 115.193 382.586 116.666 382.575 118.125C382.567 119.102 382.95 120.067 382.324 120.916L377.726 120.748C378.714 119.328 378.111 116.097 378.108 114.375C378.103 110.956 378.366 107.531 377.982 104.125Z"/>
	<path d="M288.952 104.125C291.216 104.084 293.517 104.376 295.735 104.159C297.504 103.985 303.112 103.611 304.343 104.625L304.323 106.125C304.22 106.269 303.955 106.736 303.805 106.765C303.327 106.857 302.713 106.987 302.356 107.353C301.98 107.739 302.04 109.206 302.03 109.751C301.987 112.031 302.58 119.367 301.558 120.871L297.561 120.825C297.706 120.553 297.773 120.273 297.827 119.972C298.292 117.352 297.851 113.81 297.85 111.103C297.849 110.225 298.063 108.689 297.849 107.875C297.801 107.693 297.491 107.346 297.375 107.174L296.275 107.05C295.438 106.964 295.298 106.9 294.625 106.394C293.85 107.062 293.099 107.048 292.125 107.121C291.298 107.912 291.555 109.626 291.16 110.815C292.113 110.982 293.34 111.006 294.075 111.625C294.071 112.017 294.181 112.917 294.06 113.25C293.689 114.268 292.012 113.641 291.649 114.625C291.253 115.697 291.833 116.701 291.074 117.861L294.121 118.375C294.697 118.959 294.488 119.7 294.486 120.5L294.125 120.848C291.649 121.36 288.965 120.964 286.45 120.837C287.663 119.083 287.001 109.646 286.983 107.233C286.978 106.533 286.78 105.01 287.183 104.445C287.297 104.284 288.667 104.166 288.952 104.125Z"/>
	<path d="M310.553 104.125C311.961 104.061 313.618 103.774 314.833 104.625C315.219 106.681 316.115 109.561 315.574 111.546L316.375 110.304C316.459 108.599 317.418 105.853 316.768 104.371C318.769 104.129 320.599 104.01 322.609 104.207L322.908 104.75C322.885 107.355 323.488 119.629 322.488 120.867L318.394 120.78C318.556 120.533 318.67 120.274 318.724 119.982C318.968 118.661 319.044 115.735 318.287 114.622C318.617 114.074 318.718 113.764 318.649 113.125C317.483 114.4 317.758 118.636 317.383 120.387C316.678 120.95 316.125 120.767 315.25 120.737C315.138 120.663 314.765 120.47 314.699 120.375C314.45 120.021 314.493 117.558 314.434 116.965C314.277 115.39 313.932 113.816 313.579 112.275C313.556 113.192 313.396 114.094 313.399 115.012C313.405 116.762 313.833 119.385 312.854 120.888L308.925 120.756C309.507 119.883 309.276 118.067 309.27 117.013C309.254 114.216 309.214 111.418 309.248 108.622C309.265 107.242 309.141 105.692 309.565 104.375L310.553 104.125Z"/>
	<path fill="#2B7BD3" d="M226.787 38.2414C226.971 37.1685 226.83 36.5054 226.191 35.5826C225.118 34.0333 223.475 33.9142 221.759 33.5747C221.558 33.535 220.753 33.4483 220.625 33.3536C220.146 32.9993 220.293 32.6088 220.375 32.1109C221.302 31.6179 222.56 31.7688 223.589 31.7629C225.898 31.7496 229.063 31.4295 231.265 32.1064C232.546 32.5 234.037 32.9856 234.713 34.25C235.486 35.6955 235.724 37.4379 235.878 39.0524C236.376 44.2671 236.006 49.8376 236.009 55.0847C236.01 56.4232 236.36 59.002 235.99 60.2065L235.883 60.4747L235.944 60.516C236.686 61.0091 237.188 60.9332 237.988 61.1433C239.536 61.5494 241.25 62.0129 242.499 63.0475C243.939 64.2399 244.561 66.1171 245.304 67.7648C246.497 70.4122 248.077 72.9445 250.528 74.6036C251.736 75.4211 255.715 76.9056 256.197 77.875C255.879 79.0596 254.256 80.5611 253.212 81.169C252.243 81.7334 251.065 81.9884 250.243 82.77C251.783 83.2867 253.422 83.2142 255.022 83.2251C258.188 83.2468 261.677 82.9617 264.788 83.4885C264.927 83.651 265.053 83.82 265.141 84.0168C265.515 84.8515 265.425 85.753 265.089 86.5732L227.48 86.4811C227.63 86.2726 227.796 86.013 227.812 85.75C227.919 83.9767 228.117 78.2779 227.036 77.0285C227.182 76.8006 227.538 76.3682 227.614 76.125C227.759 75.6642 227.627 74.6034 227.63 74.0883C227.642 72.1534 227.64 70.2185 227.643 68.2836C227.654 59.141 228.117 49.7323 227.548 40.6214C227.48 39.5361 227.629 38.9859 226.787 38.2414Z"/>
	<path fill="#FEFEFE" d="M235.576 83.1962L235.666 83.0811C236.326 82.1784 236.241 62.6524 235.883 60.4747L235.944 60.516C236.686 61.0091 237.188 60.9332 237.988 61.1433C239.536 61.5494 241.25 62.0129 242.499 63.0475C243.939 64.2399 244.561 66.1171 245.304 67.7648C246.497 70.4122 248.077 72.9445 250.528 74.6036C251.736 75.4211 255.715 76.9056 256.197 77.875C255.879 79.0596 254.256 80.5611 253.212 81.169C252.243 81.7334 251.065 81.9884 250.243 82.77C249.461 83.5184 237.555 83.1946 235.576 83.1962Z"/>
	<path fill="#2B7BD3" d="M435.441 58.4653C435.573 58.2725 435.863 57.9583 435.933 57.75C436.208 56.9329 436.006 55.0084 436.025 54.0912C436.094 50.8114 436.086 47.5307 436.06 44.2504C436.045 42.2528 436.144 40.1212 435.781 38.153C435.534 36.8164 435.208 35.5637 434.018 34.7555C432.696 33.8581 430.605 33.4857 429.051 33.1966C428.944 32.5871 428.9 32.5427 429.25 32.03C431.212 31.3454 434.329 31.7472 436.482 31.7427C442.897 31.7293 449.842 31.2388 456.164 32.267C459.388 32.7914 462.423 33.7814 465.367 35.1939C468.108 36.5092 470.119 39.0275 471.095 41.8688C472.423 45.7336 472.496 51.5429 470.661 55.244C469.068 58.4559 465.201 61.6507 461.805 62.7776C456.177 64.6451 450.097 64.2992 444.247 64.3689C444.804 66.1909 444.559 68.3678 444.559 70.2664C444.558 73.8764 444.545 77.4865 444.528 81.0964C444.522 82.4171 444.86 85.1607 444.242 86.2858L444.063 86.579L435.755 86.5135C435.92 86.2462 436.084 85.9431 436.113 85.625C436.428 82.0721 436.072 78.2324 436.054 74.6425C436.044 72.5652 436.386 69.6193 435.951 67.6434C435.881 67.3287 435.76 67.0242 435.621 66.7345C435.781 66.5212 435.965 66.2527 436.018 65.9876C436.306 64.5597 436.055 62.5846 436.04 61.1077C436.036 60.6331 436.151 59.6778 436.017 59.25C435.951 59.0397 435.584 58.6603 435.441 58.4653ZM444.073 35.5334L444.348 35.9991C444.726 36.7819 444.812 49.0983 444.379 50.2123C444.607 50.7395 444.865 51.4472 445.244 51.8779C446.217 52.9838 448.38 54.0175 448.682 55.5919L448.702 55.6919L448.724 55.875C449.172 57.682 447.906 59.1179 447.413 60.8064C448.578 61.0704 449.929 61.0714 451.113 60.9697C454.656 60.6657 457.531 59.4517 459.844 56.6883C462.289 53.7686 463.027 49.9387 462.711 46.2269C462.426 42.8852 460.95 39.6668 458.344 37.4931C456.318 35.8039 453.402 34.6571 450.743 34.686C448.562 34.7097 446.265 35.3403 444.073 35.5334Z"/>
	<path fill="#FEFEFE" d="M444.024 61.0199L444.125 60.8949C444.705 60.0968 444.519 58.8434 444.526 57.8959C444.544 55.4191 444.786 52.6333 444.379 50.2123C444.607 50.7395 444.865 51.4472 445.244 51.8779C446.217 52.9838 448.38 54.0175 448.682 55.5919L448.702 55.6919L448.724 55.875C449.172 57.682 447.906 59.1179 447.413 60.8064C446.786 61.2 444.838 61.0048 444.024 61.0199Z"/>
	<path fill="#2B7BD3" d="M306.771 76.5175C306.949 77.6841 305.859 79.4571 305.245 80.4877C303.049 84.1751 299.284 86.285 295.222 87.3045C288.98 88.8709 280.591 87.8833 275.053 84.5485C272.766 83.1711 271.074 81.7117 270.426 79.0193C269.855 76.6457 270.015 74.1279 270.08 71.705C270.105 70.7528 270.022 69.6464 270.544 68.8117L271.125 68.7608C272.349 69.7617 272.719 72.7023 273.259 74.2144C273.818 75.7786 274.534 77.3602 275.496 78.7203C277.909 82.1304 281.248 83.7034 285.3 84.375C288.55 84.9137 293.117 84.4877 295.875 82.4698C297.516 81.2688 298.76 79.4688 299.042 77.4414C299.414 74.7718 298.633 72.1891 296.967 70.1148C295.36 68.1135 293.183 66.7687 291.046 65.412C285.14 61.6629 277.138 58.3894 272.875 52.7103C270.663 49.7639 269.82 45.6274 270.344 42.0156C270.832 38.6524 272.541 35.7297 275.284 33.7024C279.93 30.2687 285.954 29.7496 291.498 30.6007C295.834 31.2665 301.114 32.7046 303.803 36.4212C304.448 37.3122 305.048 38.292 304.853 39.4285L304.84 39.4984L305.625 40.109C307.497 40.064 309.434 40.0826 311.292 39.8401C312.599 39.6694 313.87 39.2668 315.176 39.094C316.004 38.9845 317.868 39.0574 318.465 38.5099C318.614 38.7101 318.932 39.0307 319.015 39.25C319.338 40.0928 319.222 41.5235 319.226 42.4352C319.237 44.6733 319.236 46.9115 319.236 49.1497C319.235 57.5581 319.221 65.9666 319.205 74.375L318.699 75.0276C318.004 74.3419 316.068 73.4546 315.111 73.1751C312.588 74.6005 309.443 75.2849 306.771 76.5175ZM277.368 41.4619C277.551 41.6669 277.908 42.1799 278.125 42.3099C278.477 42.5203 279.213 42.6194 279.623 42.7476C280.91 43.1499 282.139 43.6802 283.491 43.8336C287.601 44.2995 291.762 43.2997 295.738 42.3304C297.157 41.9842 298.706 41.82 299.875 40.8877L299.781 40.2438C299.617 38.8119 297.584 37.0407 296.477 36.1628C294.038 34.2273 289.727 33.3438 286.692 33.7125C283.75 34.0699 281.168 34.8296 279.279 37.2785C278.195 38.6834 278.15 40.0461 277.368 41.4619Z"/>
	<path fill="#FEFEFE" d="M318.465 38.5099C318.614 38.7101 318.932 39.0307 319.015 39.25C319.338 40.0928 319.222 41.5235 319.226 42.4352C319.237 44.6733 319.236 46.9115 319.236 49.1497C319.235 57.5581 319.221 65.9666 319.205 74.375L318.699 75.0276C318.004 74.3419 316.068 73.4546 315.111 73.1751C312.588 74.6005 309.443 75.2849 306.771 76.5175C307.473 74.1103 307.345 71.7555 306.881 69.314C305.675 62.9699 297.015 58.7892 291.902 55.7726C289.075 54.104 286.295 52.4141 283.587 50.5539C281.479 49.1064 279.095 47.4045 278.121 44.9398C277.703 43.8829 277.576 42.5821 277.368 41.4619C277.551 41.6669 277.908 42.1799 278.125 42.3099C278.477 42.5203 279.213 42.6194 279.623 42.7476C280.91 43.1499 282.139 43.6802 283.491 43.8336C287.601 44.2995 291.762 43.2997 295.738 42.3304C297.157 41.9842 298.706 41.82 299.875 40.8877L299.781 40.2438C302.274 40.9359 302.298 47.4815 303.686 49.328C304.282 49.457 304.341 49.4961 304.875 49.1977C305.183 48.0919 305.097 46.8021 305.123 45.6601C305.165 43.7606 305.43 41.3252 304.84 39.4984L305.625 40.109C307.497 40.064 309.434 40.0826 311.292 39.8401C312.599 39.6694 313.87 39.2668 315.176 39.094C316.004 38.9845 317.868 39.0574 318.465 38.5099Z"/>
	<path fill="#2B7BD3" d="M351.691 31.7434L359.87 31.8048C360.082 32.1741 360.239 32.5732 360.274 32.9999C360.548 36.3281 360.241 39.8425 360.288 43.194C360.308 44.6093 360.769 46.608 360.443 47.9275C362.182 48.0143 364.01 47.8807 365.729 48.0833C368.236 48.3787 370.523 49.0468 373.089 49.0168C373.604 50.5306 372.805 52.4915 372.596 54.1295C371.817 60.2185 372.38 66.2797 374.679 72.0027C375.485 74.0089 376.547 75.7575 377.571 77.6464L377.25 78.0524C375.774 79.6952 372.296 81.0235 370.241 81.8422C369.6 82.0978 368.527 82.3228 367.976 82.7163C367.508 83.0506 367.382 84.4851 367.156 85.0091L367.695 85.625L367.578 86.375C366.117 87.4305 357.234 86.3803 355.221 86.1514L355.101 85.9771C353.743 84.8966 353.208 83.2529 351.92 82.3153C351.324 81.9909 350.732 81.9613 350.079 82.1632C347.558 82.9433 345.008 83.0732 342.411 83.4532C338.454 84.0323 334.506 84.6743 330.547 85.253C329.546 85.3993 328.718 85.9421 327.758 86.0895L327.484 86.4252C324.732 86.8801 321.741 86.6675 318.968 86.496C319.102 86.2688 319.247 85.9997 319.29 85.7369C319.464 84.6649 319.32 83.3434 319.311 82.2502C319.295 80.3217 319.712 76.6021 318.699 75.0276L319.205 74.375C319.221 65.9666 319.235 57.5581 319.236 49.1497C319.236 46.9115 319.237 44.6733 319.226 42.4352C319.222 41.5235 319.338 40.0928 319.015 39.25C318.932 39.0307 318.614 38.7101 318.465 38.5099C318.707 37.3035 318.489 36.4237 317.794 35.3822C317.468 34.8934 317.128 34.57 316.598 34.2968C315.61 33.8912 314.458 33.6833 313.403 33.5396C313.253 33.5192 312.389 33.4744 312.318 33.4185C312.242 33.3592 312.079 32.9764 312.025 32.875L312.171 32.125C313.693 31.2604 321.806 31.7005 323.794 32.2585C324.92 32.5748 325.804 33.1354 326.387 34.1717C327.574 36.2815 327.571 38.5291 327.733 40.875C327.782 41.5907 327.985 42.5782 327.797 43.2651L327.604 43.7211C327.858 44.2746 328.129 44.9303 328.521 45.397C328.843 45.7802 329.651 46.2865 329.749 46.7513C331.843 46.9718 334.003 47.0977 336.101 46.8445C338.002 46.615 339.815 46.1118 341.746 46.0413C344.003 45.9589 346.274 45.9975 348.532 46.0043C349.462 46.0071 350.618 46.1435 351.524 45.9959C351.717 45.7604 351.94 45.4364 352.005 45.1312C352.275 43.8526 352.078 42.0632 352.083 40.7375C352.093 38.0502 352.285 35.1694 352.04 32.5C352.015 32.2259 351.848 31.9627 351.691 31.7434Z"/>
	<path fill="#FEFEFE" d="M327.398 56.4844L327.511 56.2388C328.128 54.8885 328.067 45.2848 327.604 43.7211C327.858 44.2746 328.129 44.9303 328.521 45.397C328.843 45.7802 329.651 46.2865 329.749 46.7513C331.843 46.9718 334.003 47.0977 336.101 46.8445C338.002 46.615 339.815 46.1118 341.746 46.0413C344.003 45.9589 346.274 45.9975 348.532 46.0043C349.462 46.0071 350.618 46.1435 351.524 45.9959L352.017 46.875C352.039 49.0947 352.058 51.3152 352.051 53.5351C352.048 54.595 352.204 55.629 351.577 56.5441L327.398 56.4844Z"/>
	<path fill="#FEFEFE" d="M362.668 83.9693C362.626 83.5643 361.796 82.8019 361.56 82.3882C361.015 81.4327 360.668 80.2993 360.55 79.2097C360.15 75.496 360.388 71.5534 360.385 67.8095C360.381 61.1831 360.349 54.5532 360.443 47.9275C362.182 48.0143 364.01 47.8807 365.729 48.0833C368.236 48.3787 370.523 49.0468 373.089 49.0168C373.604 50.5306 372.805 52.4915 372.596 54.1295C371.817 60.2185 372.38 66.2797 374.679 72.0027C375.485 74.0089 376.547 75.7575 377.571 77.6464L377.25 78.0524C375.774 79.6952 372.296 81.0235 370.241 81.8422C369.6 82.0978 368.527 82.3228 367.976 82.7163C367.508 83.0506 367.382 84.4851 367.156 85.0091L362.668 83.9693Z"/>
	<path fill="#FEFEFE" d="M327.319 60.0173L351.604 59.9854C352.521 61.3216 352.064 65.0277 352.062 66.6757C352.055 71.596 351.668 76.7617 352.495 81.625L351.92 82.3153C351.324 81.9909 350.732 81.9613 350.079 82.1632C347.558 82.9433 345.008 83.0732 342.411 83.4532C338.454 84.0323 334.506 84.6743 330.547 85.253C329.546 85.3993 328.718 85.9421 327.758 86.0895C327.84 80.5677 327.792 75.0354 327.794 69.5126C327.795 66.7468 328.026 63.7427 327.764 61C327.73 60.6478 327.524 60.2978 327.319 60.0173Z"/>
	<path fill="#2B7BD3" d="M373.089 49.0168L373.152 48.9773C374.447 48.1272 375.389 44.5463 376.169 43.117C381.719 32.9549 392.697 28.4656 403.93 30.6352C409.951 31.798 415.601 35.6008 419.026 40.693C420.411 42.7531 424.001 49.4331 423.585 51.7255C424.892 54.8179 424.739 64.7965 423.366 67.838L423.075 68.2558C423.133 69.4259 422.559 70.447 422.125 71.4992C420.879 74.5224 419.36 77.4945 417.151 79.9428C412.693 84.8846 406.958 87.9306 400.219 88.2396C392.981 88.5715 386.42 86.5365 381.038 81.6084C379.907 80.573 378.695 78.5085 377.25 78.0524L377.571 77.6464C376.547 75.7575 375.485 74.0089 374.679 72.0027C372.38 66.2797 371.817 60.2185 372.596 54.1295C372.805 52.4915 373.604 50.5306 373.089 49.0168Z"/>
	<path fill="#FEFEFE" d="M395.838 33.6249C400.07 33.1861 403.902 33.8895 407.356 36.5003C411.731 39.8081 413.978 46.1608 414.705 51.3855C415.916 60.0903 415.686 71.5881 410.132 78.8613C407.616 82.157 404.16 84.1271 400.057 84.6576C397.086 85.1668 393.581 84.4493 391.028 82.8946C386.334 80.0365 383.822 75.3172 382.537 70.1065C380.306 61.0658 380.551 48.9786 385.501 40.8654C387.999 36.7704 391.229 34.7383 395.838 33.6249Z"/>
	<path fill="#FEFEFE" d="M175.613 34.3187C174.207 33.7151 172.17 33.8962 171.055 33L171.058 32.125L171.625 31.7896C179.462 31.6886 187.31 31.7753 195.148 31.7927C197.996 31.7991 200.844 31.8062 203.692 31.8172C205.561 31.8245 207.661 31.697 209.463 32.2316C210.994 32.6857 212.308 33.3668 213.084 34.8234C213.552 35.7024 214.167 36.9978 213.866 37.9959C214.557 38.3854 215.381 38.9173 216.159 39.0849C217.419 39.3563 219.075 39.0707 220.368 39.0272C222.128 38.9681 224.18 39.2107 225.88 38.7434C226.243 38.6437 226.536 38.5363 226.787 38.2414C227.629 38.9859 227.48 39.5361 227.548 40.6214C228.117 49.7323 227.654 59.141 227.643 68.2836C227.64 70.2185 227.642 72.1534 227.63 74.0883C227.627 74.6034 227.759 75.6642 227.614 76.125C227.538 76.3682 227.182 76.8006 227.036 77.0285C224.742 77.0479 222.076 76.8296 219.834 77.2497C218.274 77.542 216.855 78.2641 215.274 78.5153L215.317 78.8515C215.355 80.2219 213.224 83.9123 212.199 84.9398C211.425 85.7148 210.213 86.2283 209.147 86.4245C205.88 87.0255 202.118 86.7121 198.792 86.7155C191.806 86.7228 184.822 86.6539 177.837 86.6057L177.93 86.4858C178.085 86.275 178.239 86.0139 178.266 85.75C178.445 84.0088 178.294 82.0658 178.297 80.3058C178.303 76.598 178.298 72.8902 178.292 69.1824C178.277 60.0233 178.559 50.7596 178.25 41.6133C178.209 40.4037 178.007 39.0488 177.771 37.8607C177.469 36.3368 176.93 35.1883 175.613 34.3187Z"/>
	<path fill="#2B7BD3" d="M175.613 34.3187C174.207 33.7151 172.17 33.8962 171.055 33L171.058 32.125L171.625 31.7896C179.462 31.6886 187.31 31.7753 195.148 31.7927C197.996 31.7991 200.844 31.8062 203.692 31.8172C205.561 31.8245 207.661 31.697 209.463 32.2316C210.994 32.6857 212.308 33.3668 213.084 34.8234C213.552 35.7024 214.167 36.9978 213.866 37.9959C214.091 39.934 214.298 42.8971 213.716 44.7407C213.173 45.0491 212.779 44.9744 212.181 44.875C211.593 44.0733 211.776 42.806 211.58 41.8506C210.87 38.3834 207.919 35.942 204.48 35.4302C198.652 34.563 192.156 35.1177 186.25 35.1735C186.458 35.525 186.631 35.9166 186.651 36.3293C186.881 41.0118 186.574 45.8984 186.587 50.6052C186.591 51.9749 186.981 54.583 186.619 55.7885C186.543 56.0427 186.424 56.2564 186.271 56.471L208.556 56.5085C209.087 57.3266 209.128 58.4124 208.919 59.3524C208.867 59.589 208.753 59.7778 208.606 59.9665L186.123 60.0112C186.326 60.2876 186.546 60.65 186.575 61C186.965 65.8588 186.618 71.0577 186.606 75.9487C186.601 77.9525 186.945 80.5774 186.539 82.4847C186.486 82.73 186.358 82.9468 186.207 83.1431C190.291 83.1825 194.377 83.2382 198.46 83.1763C200.982 83.1381 203.942 83.1949 206.375 82.464C208.149 81.9312 210.13 80.7113 211.456 79.4132C212.418 78.4709 213.1 77.3969 213.77 76.2388C214.221 75.4576 214.58 74.4446 215.375 74.0242C215.943 74.1077 216.058 74.0595 216.453 74.5C216.447 75.7582 215.774 77.3594 215.274 78.5153L215.317 78.8515C215.355 80.2219 213.224 83.9123 212.199 84.9398C211.425 85.7148 210.213 86.2283 209.147 86.4245C205.88 87.0255 202.118 86.7121 198.792 86.7155C191.806 86.7228 184.822 86.6539 177.837 86.6057L177.93 86.4858C178.085 86.275 178.239 86.0139 178.266 85.75C178.445 84.0088 178.294 82.0658 178.297 80.3058C178.303 76.598 178.298 72.8902 178.292 69.1824C178.277 60.0233 178.559 50.7596 178.25 41.6133C178.209 40.4037 178.007 39.0488 177.771 37.8607C177.469 36.3368 176.93 35.1883 175.613 34.3187Z"/>
	<path fill="#FEFEFE" d="M71.6756 4.38637C74.5326 5.54583 76.9247 7.13533 79.5921 8.62128C85.4033 11.8586 91.1314 15.2451 96.8818 18.59C99.4866 20.1053 102.091 21.6817 104.727 23.1379C107.559 24.7028 110.414 26.1267 112.952 28.1602L113.247 33.3715C114.672 33.1652 115.9 32.8238 117.237 32.2914L117.625 31.5193C119.81 31.4864 123.112 34.0979 124.985 35.2145C127.735 36.8547 130.611 38.2988 133.249 40.1253L133.26 87.969C131.675 88.8519 128.635 90.2946 127.543 91.7024C128.393 93.2096 128.945 93.6678 130.479 94.3711L133.491 93.0703L133.21 111.284L92.0312 135.078C90.7323 134.585 89.4659 134.049 88.2699 133.336C87.3171 133.668 87.0767 134.011 86.6376 134.932C86.4403 135.346 86.3803 135.851 86.3158 136.302L86.2594 136.555L87.375 137.446L87.3165 137.875L71.6764 146.765L32.6322 124.338C31.4036 123.485 30.7123 123.132 30.4371 121.608C30.1557 120.408 28.742 119.343 27.8756 118.499C27.1304 118.84 26.5196 119.221 25.8634 119.707C24.4806 120.027 12.3246 112.38 10.3323 111.154C9.49852 106.102 10.059 100.265 10.0632 95.1229C10.0719 84.6303 10.0663 74.1385 10.0194 63.646C11.1126 62.7441 12.1682 61.8787 13.4133 61.1868C13.4908 60.7361 13.3806 60.0748 13.264 59.625C13.0371 58.7497 11.7656 58.12 11.0217 57.6877L10.3134 57.625C9.78036 54.538 10.0267 51.1479 10.023 48.0152C10.0199 45.4202 9.71544 42.3751 10.3694 39.8619C13.8242 37.3583 17.6939 35.3351 21.4046 33.2214C26.1014 30.5462 30.7665 27.8108 35.4578 25.125C40.625 22.1668 45.8755 18.4397 51.3436 16.153C55.8178 18.0299 59.8823 20.9531 64.2378 23.1389C65.1348 22.5875 66.5382 21.0004 66.9322 20.0297L56.2625 13.4813C57.8479 11.6363 60.8408 10.2982 62.9555 9.09333C65.7734 7.48781 68.6698 5.5924 71.6756 4.38637Z"/>
	<path fill="#2B7BD3" d="M117.237 32.2914L117.625 31.5193C119.81 31.4864 123.112 34.0979 124.985 35.2145C127.735 36.8547 130.611 38.2988 133.249 40.1253L133.26 87.969C131.675 88.8519 128.635 90.2946 127.543 91.7024L127.375 91.4236L91.8168 111.854L75.9986 102.455L117.645 78.4678C117.182 77.2293 117.4 75.4316 117.394 74.1107C117.377 70.8091 117.377 67.5075 117.377 64.2058C117.377 53.7124 117.223 43.1895 117.456 32.6995L117.237 32.2914Z"/>
	<path fill="#2B7BD3" d="M51.3741 39.4581L67.5879 48.6382L25.9677 72.5164C26.0364 83.7061 26.0067 94.8973 26.0063 106.087C26.0062 108.981 26.0059 111.874 26.0044 114.768C26.0036 116.361 26.1508 118.144 25.8634 119.707C24.4806 120.027 12.3246 112.38 10.3323 111.154C9.49852 106.102 10.059 100.265 10.0632 95.1229C10.0719 84.6303 10.0663 74.1385 10.0194 63.646C11.1126 62.7441 12.1682 61.8787 13.4133 61.1868L51.3741 39.4581Z"/>
	<path fill="#2B7BD3" d="M30.4779 75.2393L46.5211 65.9693L46.5348 114.026C50.6776 115.768 54.6295 118.495 58.5277 120.76C66.112 125.167 73.7035 129.623 81.3506 133.918C82.5306 134.581 84.9857 136.429 86.2594 136.555L87.375 137.446L87.3165 137.875L71.6764 146.765L32.6322 124.338C31.4036 123.485 30.7123 123.132 30.4371 121.608L30.4779 75.2393Z"/>
	<path fill="#2B7BD3" d="M71.6756 4.38637C74.5326 5.54583 76.9247 7.13533 79.5921 8.62128C85.4033 11.8586 91.1314 15.2451 96.8818 18.59C99.4866 20.1053 102.091 21.6817 104.727 23.1379C107.559 24.7028 110.414 26.1267 112.952 28.1602L113.247 33.3715C113.014 34.7739 113.142 36.4088 113.139 37.8361C113.134 40.5771 113.132 43.3182 113.13 46.0593C113.124 55.8683 113.084 65.6788 113.22 75.4871L97.0135 84.9109L96.9942 37.0809L67.2691 19.9348L66.9322 20.0297L56.2625 13.4813C57.8479 11.6363 60.8408 10.2982 62.9555 9.09333C65.7734 7.48781 68.6698 5.5924 71.6756 4.38637Z"/>
	<path fill="#2B7BD3" d="M51.3436 16.153C55.8178 18.0299 59.8823 20.9531 64.2378 23.1389C65.1096 23.9148 66.2887 24.472 67.3005 25.06C69.2792 26.2101 71.271 27.3376 73.25 28.4872C77.4647 30.9354 81.6836 33.3704 85.9136 35.7921C88.1726 37.0854 90.4102 38.5335 92.7625 39.6402L92.7237 58.2537L51.5173 34.3804L11.0217 57.6877L10.3134 57.625C9.78036 54.538 10.0267 51.1479 10.023 48.0152C10.0199 45.4202 9.71544 42.3751 10.3694 39.8619C13.8242 37.3583 17.6939 35.3351 21.4046 33.2214C26.1014 30.5462 30.7665 27.8108 35.4578 25.125C40.625 22.1668 45.8755 18.4397 51.3436 16.153Z"/>
	<path fill="#2B7BD3" d="M50.6543 92.8061C60.7964 98.5668 70.8623 104.482 80.9705 110.305C83.421 111.716 85.8271 113.204 88.2801 114.611C89.5281 115.328 90.8401 116.2 92.2091 116.657L130.479 94.3711L133.491 93.0703L133.21 111.284L92.0312 135.078C90.7323 134.585 89.4659 134.049 88.2699 133.336C87.8367 132.471 80.9006 128.873 79.3477 127.98C73.6219 124.684 67.876 121.407 62.1761 118.069C58.386 115.849 54.5651 113.399 50.6332 111.449L50.6543 92.8061Z"/>
</svg>
