<?xml version="1.0" encoding="UTF-8"?>
<!DOCTYPE svg PUBLIC "-//W3C//DTD SVG 1.1//EN" "http://www.w3.org/Graphics/SVG/1.1/DTD/svg11.dtd">
<!-- Creator: CorelDRAW -->
<svg xmlns="http://www.w3.org/2000/svg" xml:space="preserve" width="210mm" height="297mm" version="1.1" style="shape-rendering:geometricPrecision; text-rendering:geometricPrecision; image-rendering:optimizeQuality; fill-rule:evenodd; clip-rule:evenodd"
viewBox="0 0 21000 29700"
 xmlns:xlink="http://www.w3.org/1999/xlink"
 xmlns:xodm="http://www.corel.com/coreldraw/odm/2003">
 <defs>
  <style type="text/css">
   <![CDATA[
    .fil3 {fill:#061E49;fill-rule:nonzero}
    .fil1 {fill:#136CB6;fill-rule:nonzero}
    .fil5 {fill:#279DD1;fill-rule:nonzero}
    .fil4 {fill:#E43320;fill-rule:nonzero}
    .fil0 {fill:#FEFEFE;fill-rule:nonzero}
    .fil2 {fill:url(#id0);fill-rule:nonzero}
   ]]>
  </style>
  <linearGradient id="id0" gradientUnits="userSpaceOnUse" x1="8743.82" y1="13991.9" x2="8512.21" y2="12981.19">
   <stop offset="0" style="stop-opacity:1; stop-color:#126ABE"/>
   <stop offset="1" style="stop-opacity:1; stop-color:#1A9FD5"/>
  </linearGradient>
 </defs>
 <g id="Слой_x0020_1">
  <metadata id="CorelCorpID_0Corel-Layer"/>
  <polygon class="fil0" points="-3046.67,1303.33 24046.67,1303.33 24046.67,28396.67 -3046.67,28396.67 "/>
  <g id="_2120190463952">
   <path class="fil1" d="M7198.43 13889.38l799.34 0.18 1.44 357.1 -1120.35 -121.26c-3.29,-31.36 -3.03,-71.05 2.65,-101.92 5.01,-27.18 11.12,-35.27 34.72,-49.06 46.06,-26.91 81.85,-11.41 128.26,2.83l153.94 -87.87z"/>
   <path class="fil2" d="M8424.39 12996.23l452.7 -0.76 1.05 1581.01c-12.68,-69.14 -7.12,-145.71 -7.1,-216.01 0.06,-122.46 0.34,-244.92 0.65,-367.39 -147.92,3.81 -306.81,-3.22 -452.62,19.96l5.32 -1016.81z"/>
   <path class="fil3" d="M11824.47 14718.43l479.3 0.19c-8.99,153.12 -59.27,293.73 -169.9,403.35 -87.79,86.98 -198.08,137.8 -317.97,164.18 -146.39,32.19 -332.46,10.44 -484,10.57 -335.83,0.29 -671.66,0.78 -1007.47,1.1l1.97 -461.01c320.96,-3.04 642.21,0.16 963.21,0.02 90.17,-0.02 180.33,0.02 270.5,-0.21 51.98,-0.13 113.57,3.81 163.18,-13.71 52.69,-18.6 76.65,-57.25 101.18,-104.48z"/>
   <path class="fil4" d="M6366.27 14070.23l-1.06 -212.86c-0.4,-247.6 37.65,-449.74 221.11,-630.62 252.64,-249.09 558.65,-235.03 887.76,-235.13 176.64,-0.06 353.28,0.04 529.93,0.23l-0.49 495.63c-207.19,-0.95 -414.39,-1.79 -621.58,-2.43 -99.32,-0.29 -215.24,-11.29 -312.75,6.25 -51.74,9.33 -97.41,33.42 -134.57,70.61 -88.23,88.24 -73.13,211.53 -72.19,326.33l336 1.14 -153.94 87.87c-46.41,-14.24 -82.2,-29.74 -128.26,-2.83 -23.6,13.79 -29.71,21.88 -34.72,49.06 -5.68,30.87 -5.94,70.56 -2.65,101.92l-512.59 -55.17z"/>
   <path class="fil3" d="M8419.07 14013.04c145.81,-23.18 304.7,-16.15 452.62,-19.96 -0.31,122.47 -0.59,244.93 -0.65,367.39 -0.02,70.3 -5.58,146.87 7.1,216.01 0.51,74.79 -11.41,188.12 43.23,245.96 11.5,12.19 32.21,19.86 48.8,21.7 98.36,10.82 208.23,-0.93 308.06,-1.14 225.18,-0.45 450.37,0.01 675.55,0.1l0.42 454.46c-233.7,0.27 -467.4,0.49 -701.12,0.3 -125.51,-0.09 -261.68,10.31 -385.83,-7.17l-18.15 -2.75c-117.18,-16.17 -237.2,-62.92 -320.77,-150.01 -44.75,-46.62 -78.04,-116.56 -92.52,-179.27 -29.34,-126.97 -19.12,-264.59 -18.81,-394.41 0.45,-183.73 1.14,-367.47 2.07,-551.21z"/>
   <path class="fil5" d="M10243.01 13843.12l-13.83 -148.31c-0.97,-188.49 53.92,-369.28 189.96,-504.61 84.97,-84.5 201.03,-153.23 317.68,-181.27 161.64,-38.85 362.36,-15.52 530.06,-15.62 324.14,-0.22 648.26,0.05 972.37,0.46l-0.65 459.36c-298.09,1.85 -596.61,-3.22 -894.73,-5.07 -97.46,-0.64 -194.97,-1.29 -292.45,-1 -51.96,0.16 -115.36,-3.17 -163.81,18.07 -37.21,16.28 -75.57,55.36 -89.75,93.57 -37.7,101.65 -22.02,188.5 24.28,283.42l-579.13 1z"/>
   <path class="fil1" d="M10822.14 13842.12c30.81,23.21 68.23,53.7 106.49,62 61.14,13.26 138.59,5.24 201.13,4.84 166.59,-1.09 333.19,-4.32 499.78,-6.4 100.06,-1.24 210.42,-12.46 307.87,14.12 185.61,50.67 330.14,224.63 357.46,412.47 18.33,126.11 9.05,262.12 8.9,389.47l-479.3 -0.19c14.53,-63.65 22.13,-124.32 5.07,-188.48 -14.53,-54.66 -43.31,-105.79 -96.42,-130.4 -62.73,-29.12 -149.41,-18.55 -217.28,-18.66 -140.65,-0.25 -281.29,-0.25 -421.94,-0.42 -201.26,-0.25 -378.72,12.57 -560.92,-90.85 -175.59,-99.69 -237.67,-262.51 -289.97,-446.5l579.13 -1z"/>
   <path class="fil3" d="M6366.27 14070.23l512.59 55.17 1120.35 121.26 -1.69 92.67c-39.51,26.72 -994.66,8.95 -1124.56,10.55l-2.44 54.89c-2.4,126.87 -19.88,262.76 78.99,359.94 39.39,38.72 81.94,59.9 135.83,71.28 108.1,22.82 240.1,9.91 351.2,10.4 225.04,0.96 450.12,1.66 675.17,2.29l7.05 446.29c-196.56,0.31 -393.1,0.53 -589.66,0.36 -339.98,-0.28 -676.67,20.87 -938.93,-237.83 -276.63,-272.87 -224.09,-632.7 -223.9,-987.27z"/>
   <path class="fil3" d="M18885.86 14100.36l531.15 6.49c-71.01,202.58 -175.02,368.86 -376.62,462.5 -53.48,24.85 -105.32,36.47 -163.2,45.36l-16.3 2.67c-100.11,15.37 -209.01,7.35 -310.29,7.09 -178.37,-0.44 -356.74,-0.65 -535.11,-1.09l-4.82 705.72 -518.34 -2.17 -0.09 -1186.98 487.57 2.4c140.29,4.08 281.18,3.24 421.57,4.46 160.21,1.39 338.16,27.27 484.48,-46.45z"/>
   <polygon class="fil3" points="12677.21,14153.42 14523.32,14151.97 14521.36,15303.92 13997.25,15304.53 13996.85,14396.98 13193.88,14400.84 13193.34,15307.48 12673.04,15306.72 "/>
   <path class="fil4" d="M14848.22 14142.16c7.44,-322.65 94.84,-593.83 314.27,-833.83 202.86,-221.92 495.56,-318.4 788.79,-331.03 312.5,-13.48 651.25,59.82 885.92,278.41 250.04,232.92 318.08,555.84 332.23,884.03l-518.58 0.73 -6.25 -80.73c-17.98,-204.73 -83.97,-405.27 -250.15,-537.48 -126.53,-100.69 -303.35,-135.98 -461.14,-113.2l-19.8 3.04c-115.34,16.77 -226.95,64.78 -314.61,142.71 -177.78,158.05 -211.89,365.39 -224.06,591.71l-526.62 -4.36z"/>
   <polygon class="fil4" points="12677.76,12994.79 13189.63,12993.78 13187.91,13825.64 14000.13,13824.04 14001.8,12996.9 14523.83,12998.31 14523.32,14151.97 12677.21,14153.42 "/>
   <path class="fil3" d="M16650.85 14140.47l518.58 -0.73c-13.83,345.93 -74.86,661.96 -341.36,906.12 -259.17,237.4 -585.35,321.82 -930.36,302.11 -298.24,-17.02 -591.05,-161.59 -784.64,-388.22 -113.52,-132.91 -189.32,-293.94 -232.4,-462.5l-5.28 -19.75c-27.57,-107.18 -27.52,-225.11 -27.17,-335.34l526.62 4.36c6.4,215.99 51.27,430.28 215.41,584.1 136.51,127.96 290.85,163.77 473.57,155.58 150.43,-6.75 299,-63.86 402.06,-176.49 140.79,-153.88 184.28,-366.49 184.97,-569.24z"/>
   <path class="fil0" d="M15374.84 14146.52c12.17,-226.32 46.28,-433.66 224.06,-591.71 87.66,-77.93 199.27,-125.94 314.61,-142.71l19.8 -3.04c157.79,-22.78 334.61,12.51 461.14,113.2 166.18,132.21 232.17,332.75 250.15,537.48l6.25 80.73c-0.69,202.75 -44.18,415.36 -184.97,569.24 -103.06,112.63 -251.63,169.74 -402.06,176.49 -182.72,8.19 -337.06,-27.62 -473.57,-155.58 -164.14,-153.82 -209.01,-368.11 -215.41,-584.1z"/>
   <path class="fil4" d="M17490.35 13000.13c274.49,-1.67 549,-1.41 823.49,-1.25 153.44,0.11 319.05,-11.43 470.8,10.18l18.84 2.85 84.23 13.38c184.9,43.96 340.97,148.76 439.89,311.86 98.73,162.77 104.61,313.82 107.09,499.38 1.22,91.53 4.22,180.62 -17.68,270.32l-531.15 -6.49c-146.32,73.72 -324.27,47.84 -484.48,46.45 -140.39,-1.22 -281.28,-0.38 -421.57,-4.46l-487.57 -2.4 -1.89 -1139.82z"/>
   <path class="fil0" d="M17978.56 13453.34c169.84,0.04 339.68,0.19 509.52,0.54 81.02,0.18 181.85,-10.56 260.26,6.77 36.64,8.1 77.55,24.85 107.79,47.34 66.43,49.43 84.91,112.25 98.37,190.32 23.88,138.46 11.73,284.52 -68.64,402.05 -146.32,73.72 -324.27,47.84 -484.48,46.45 -140.39,-1.22 -281.28,-0.38 -421.57,-4.46l-1.25 -689.01z"/>
  </g>
  <g id="_2120190462752">
   <path class="fil4" d="M1970.55 12929.42c-19.72,22.21 -39.15,46.12 -62.16,65.06 -46,37.89 -100.44,51.92 -159.37,45.17 -58.07,-6.64 -112.31,-38.83 -147.35,-85.26 -33.66,-44.61 -49.29,-102.03 -40.41,-157.54l0.86 -5.01c7.93,-49.41 29.66,-90.25 66.26,-124.38 40.24,-37.53 99.19,-61.4 154.44,-58.88 58.21,2.65 110.06,25.88 150.34,68.24 14.81,15.57 26.7,33.78 41.33,49.75 30.49,5.58 61.38,7.41 91.68,14.05 60.8,13.32 121.49,47.47 167.12,89.42 61.61,56.64 104.18,129.38 118.65,212.28 6.11,35.06 4.31,72.13 4.36,107.65 0.1,74.84 -3.3,150.24 -0.24,224.99 -13.08,46.98 -23.69,94.86 -27.82,143.55 -6.6,77.95 -1.37,160.17 -1.35,238.65 0.03,111.83 0.58,223.69 0.15,335.52 -301.52,-0.21 -603.03,-0.18 -904.55,-0.14 -86.88,0.01 -173.76,0.02 -260.65,-0.04 -59.54,-0.05 -121.58,3.94 -180.69,-0.6 -22.96,-1.76 -45.96,-8.1 -68.67,-11.98l-23.7 -11.16c-67.23,-35.01 -124.75,-96.71 -146.13,-170.31 -20.3,-69.86 -10.98,-146.51 25.49,-209.5 42.2,-72.87 108.29,-118.28 188.38,-140.88 48.2,-13.6 108.96,-7.11 159.07,-7.11 76.15,0.02 152.3,0.11 228.44,0.19 270.81,0.29 541.61,-0.23 812.42,-0.5 0.1,-103.61 0.17,-207.24 0.14,-310.86 -0.01,-45.38 5.69,-100.2 -2.67,-144.62 -5.26,-27.91 -17.67,-58.07 -35.34,-80.55 -38.18,-48.55 -88.6,-67.34 -148.03,-75.2z"/>
   <path class="fil0" d="M1016.45 13734.95l1140.21 -1.09 -0.13 164.41 -85.82 -0.08c-236.87,-0.16 -473.76,-0.65 -710.63,0.34 -79.33,0.33 -158.66,0.92 -237.99,1.39 -37.84,0.23 -77.9,3.01 -115.52,0.12 -17.07,-1.32 -30.29,-3.41 -44.13,-14.14 -19.98,-15.49 -29.67,-38.57 -32.07,-63.23 -2.25,-23.27 5.58,-45.18 21.04,-62.47 18.97,-21.22 38.44,-23.33 65.04,-25.25z"/>
   <path class="fil3" d="M2356.06 13374.96c13.19,-28.83 24.04,-58.49 39.12,-86.43 76.07,-140.91 196.91,-255.24 348.08,-311.67 60.82,-22.7 128.91,-37.69 193.65,-42.1 47.44,-3.24 95.77,-1.55 143.32,-1.46 80.78,0.12 161.56,0.42 242.34,0.5 248.63,0.23 497.25,0.19 745.88,0.14 227.5,-0.03 455.01,-0.41 682.51,-0.58 69.93,-0.06 139.86,-0.1 209.78,-0.08 46.59,0 93.61,-1.35 140.08,2.55 75.92,6.37 150.19,28.74 219.26,60.54 161.8,74.5 285.48,214.42 346.36,381.05 20.86,57.06 34.12,117.86 38.85,178.39 6.58,84.28 2.68,171.2 2.66,255.76 -0.02,147.99 0.05,295.96 0.09,443.95 0.04,126.92 0.06,253.84 0,380.76 -0.04,73.93 3.84,150.25 -4.59,223.78 -8.7,75.88 -33.24,151.2 -65.93,219.99 -75.12,158.13 -215.64,282.52 -380.33,340.72 -56.22,19.87 -114.29,33.9 -173.93,38.07 -43.53,3.04 -88.46,0.99 -132.14,0.99 -79.57,0 -159.13,-0.02 -238.7,-0.05 -248.65,-0.06 -497.31,-0.14 -745.97,-0.1 -230.84,0.04 -461.68,0.07 -692.52,0.13 -72.22,0.02 -144.44,0.07 -216.65,0.02 -42.39,-0.03 -85.92,1.94 -128.13,-1.47 -61.02,-4.95 -124.01,-23.98 -179.01,-50.56 -28.95,-14 -55.48,-29.99 -81.76,-48.49 -275.98,0.21 -551.96,0.39 -827.95,0.45 -80.49,0.01 -160.99,0.02 -241.49,-0.02 -43.27,-0.01 -90.07,3.44 -132.84,-2.27 -33.99,-4.56 -71.5,-20.47 -96.1,-44.67 -13.19,-12.97 -23.4,-29.35 -30.72,-46.29 -20.54,-47.55 -36.58,-98.12 -54.29,-146.84 -37.19,-102.29 -73.37,-204.96 -110.53,-307.26 -64.81,-178.39 -128.84,-356.99 -191.65,-536.08 -22.99,-65.55 -48.96,-130.33 -70.33,-196.41 22.71,3.88 45.71,10.22 68.67,11.98 59.11,4.54 121.15,0.55 180.69,0.6 86.89,0.06 173.77,0.05 260.65,0.04 301.52,-0.04 603.03,-0.07 904.55,0.14 0.43,-111.83 -0.12,-223.69 -0.15,-335.52 -0.02,-78.48 -5.25,-160.7 1.35,-238.65 4.13,-48.69 14.74,-96.57 27.82,-143.55z"/>
   <path class="fil0" d="M1561.28 14909.97c103.27,-2.99 207.21,-0.02 310.56,-0.21 47.85,-0.09 95.69,-0.25 143.53,-0.2 20.85,0.03 48.9,-3.27 68.75,3.88 23.21,8.36 41.52,28.76 51.43,51 8.61,19.32 4.37,44.94 -4.18,63.53 -11.34,24.65 -26.9,37.09 -52.2,46.04 -41.5,5.59 -85.93,3.45 -127.9,3.72 -76.76,0.5 -153.54,0.39 -230.31,0.35 -36.83,-0.02 -73.66,0.08 -110.48,-0.22 -16.75,-0.14 -39.15,2.05 -55.12,-3.4 -22.1,-7.53 -42.12,-23.09 -51.59,-44.77 -10.03,-22.96 -10.61,-50.33 -0.26,-73.19 11.89,-26.28 32.05,-37.16 57.77,-46.53z"/>
   <path class="fil0" d="M1382.6 14460.94c113,-7.22 230.73,-1.01 344.07,-0.58 72.44,0.29 144.87,0.61 217.31,1 28.35,0.16 56.71,0.3 85.06,0.51 20.11,0.15 44.7,-1.06 63.2,7.65 21.56,10.14 35.52,27.52 43.4,50.01 7.21,20.63 6.2,48.45 -4.01,67.73 -12.47,23.55 -27.67,36.67 -53.31,43.81 -47.67,2.46 -96.15,0.72 -143.9,0.67 -84.39,-0.09 -168.76,-0.29 -253.15,-0.18 -68.9,0.07 -137.8,0.2 -206.7,0.1 -29.24,-0.04 -68.4,4.47 -96.33,-3.18 -19.39,-5.32 -35.86,-19.88 -45.79,-37.11 -10.59,-18.4 -15.04,-46.15 -8.88,-66.99l1.12 -3.45 2.99 -8.99c10.67,-28.04 28.55,-39.93 54.92,-51z"/>
   <path class="fil0" d="M2743.32 13959.82l-0.15 -8.77c-0.78,-84.1 -0.5,-168.24 -0.68,-252.35 -0.09,-45.72 -6.69,-103.01 4,-147.17 10.94,-45.14 33.34,-85.6 66.1,-118.55 32.66,-32.85 72.06,-55.07 117.75,-64.49 24.68,-5.09 51.44,-3.65 76.56,-3.75 40.73,-0.15 81.45,-0.31 122.18,-0.47 144.95,-0.58 289.88,-1.63 434.83,-1.39 -2.27,12.87 -5.23,15.59 -14.43,24.55 -27.41,26.71 -61.18,48.35 -90.53,73.11 -57.67,48.62 -113.27,107.07 -158.1,167.53 -72.3,97.51 -124.66,212.69 -148.09,331.82l-409.44 -0.07z"/>
   <path class="fil0" d="M4422.49 13366.43c153.11,-3.91 306.79,-1.47 459.97,-1.51 42.51,-0.02 85.02,0.1 127.53,-0.06 28.39,-0.11 59.54,-2.54 87.46,2.87 42.33,8.18 84.64,28.63 115.82,58.64 41.81,40.26 68.1,94.3 68.99,152.73l0.33 384.38 -440.6 -1.81c-48.2,-211.54 -168.83,-377.65 -333.77,-514.94 -19.95,-16.61 -40.4,-32.64 -61.07,-48.34 -10.1,-7.66 -23.39,-15.28 -29.04,-26.84l4.38 -5.12z"/>
   <path class="fil0" d="M4853.81 14159.02l428.88 -0.48c0.16,153.7 0.28,307.39 0.2,461.09 -0.02,39.97 -0.14,79.94 -0.04,119.91 0.07,26.56 2.16,54.75 -3.03,80.85 -10.17,51.13 -34.7,99.07 -71.65,135.94 -41.13,41.04 -93.27,66.37 -149.41,79.61 -33.29,7.86 -71,4.8 -105.11,4.81 -53.22,0.02 -106.44,0.01 -159.67,0 -202.57,-0.03 -405.16,-0.17 -607.74,-0.2 -270.42,-0.06 -540.83,0.14 -811.26,0.19 -85.72,0.01 -171.46,0.03 -257.19,0.02 -45.73,0 -93.41,2.63 -138.97,-1.27 -40.61,-3.47 -82.33,-19.43 -116.67,-41.21 -58.66,-37.21 -100.36,-98.45 -114.3,-166.28 -6.42,-31.28 -5.21,-62.73 -5.27,-94.45 -0.07,-43.67 -0.09,-87.34 -0.09,-131.02 -0.02,-147.55 0,-295.1 0,-442.65l395.51 0.91c6.17,35.32 9.5,70.62 17.12,105.8 30.38,140.53 91.81,270.2 189.04,377.11 153.56,168.84 375.13,280.05 604.37,290.95 237.46,11.3 465.23,-66.2 640.97,-228.14 147.14,-135.59 256.16,-349.81 264.31,-551.49z"/>
   <path class="fil4" d="M3566.33 13174.28l861.42 0.69c-0.52,39.36 -1.04,78.72 -1.24,118.09 -0.12,22.83 3.27,51.66 -4.02,73.37l-4.38 5.12c5.65,11.56 18.94,19.18 29.04,26.84 20.67,15.7 41.12,31.73 61.07,48.34 164.94,137.29 285.57,303.4 333.77,514.94 8.8,66.97 11.94,129.72 11.82,197.35 -8.15,201.68 -117.17,415.9 -264.31,551.49 -175.74,161.94 -403.51,239.44 -640.97,228.14 -229.24,-10.9 -450.81,-122.11 -604.37,-290.95 -97.23,-106.91 -158.66,-236.58 -189.04,-377.11 -7.62,-35.18 -10.95,-70.48 -17.12,-105.8 -0.27,-70.53 3.23,-135.19 14.76,-204.9 23.43,-119.13 75.79,-234.31 148.09,-331.82 44.83,-60.46 100.43,-118.91 158.1,-167.53 29.35,-24.76 63.12,-46.4 90.53,-73.11 9.2,-8.96 12.16,-11.68 14.43,-24.55l2.42 -188.6z"/>
   <path class="fil0" d="M4426.07 13573.7l151.33 -1.11c-46.82,282.1 -96.22,565.21 -151.6,845.73 -7.16,36.22 -13.79,72.5 -20.04,108.89 -3.95,23.04 -6.69,49.99 -16.06,71.55 -6.59,15.15 -19.49,25.47 -35.16,30.4 -25.15,7.91 -68.86,1.96 -96.13,1.95 -75.73,-0.02 -151.47,0.02 -227.21,0 -78.7,-0.02 -157.4,0 -236.1,0.05 -44.47,0.03 -89.8,1.9 -134.16,-0.72 -12.52,-0.74 -25.65,-2.07 -36.47,-8.96 -9.38,-5.97 -19.48,-14.58 -23.91,-25.03 -7.57,-17.88 -9.43,-41.05 -13.3,-60.1 -9.67,-47.58 -19,-95.24 -28.33,-142.88l-168.46 -818.08 154.16 -0.26 50.44 225.44 791.06 -0.34 39.94 -226.53z"/>
   <path class="fil4" d="M3726.06 14361.72l99.54 -0.15c0.07,31.16 0.12,62.33 0.07,93.49 -0.02,12.92 1.92,28.62 -2.37,40.73l-14.28 0.8 -75.64 -0.99c-6.3,-22.32 -31.43,-118.35 -25.73,-132.73l18.41 -1.15z"/>
   <path class="fil4" d="M4163.34 14362.98l125.73 -0.26 -21.31 117.27 -3.36 12.45c-11.77,9.76 -82.38,4.68 -101.15,4.7l0.09 -134.16z"/>
   <path class="fil4" d="M4164.75 14139.31l165.36 -0.13 -21.08 117.77c-1.65,7.57 -0.91,8.13 -6.58,14.07l-137.8 0.78 0.1 -132.49z"/>
   <polygon class="fil4" points="3661.12,14138.82 3825.19,14139.02 3825.39,14272.84 3686.19,14272.63 "/>
   <polygon class="fil4" points="3911.46,13920 4082.78,13920.38 4082.6,14046.05 3911.41,14046.55 "/>
   <polygon class="fil4" points="3912.11,14141.76 4078.9,14141.42 4079.31,14272.49 3912.36,14272.18 "/>
   <polygon class="fil4" points="3913.49,14363.12 4078.99,14363.3 4078.8,14496.57 3913.97,14496.66 "/>
   <path class="fil4" d="M4164.68 13918.79l201.85 0.44 -24.26 114.91c-0.88,6.42 -1.83,8.65 -6.31,13.35l-171.85 0.2 0.57 -128.9z"/>
   <polygon class="fil4" points="3617.04,13918.88 3826.09,13920.25 3825.82,14048.18 3640.39,14047.85 "/>
  </g>
 </g>
</svg>
