<?xml version="1.0" encoding="utf-8" ?>
<svg xmlns="http://www.w3.org/2000/svg" xmlns:xlink="http://www.w3.org/1999/xlink" width="1024" height="1024">
	<path fill="#FEFEFE" d="M0 0L1024 0L1024 1024L0 1024L0 0Z"/>
	<path fill="#136CB6" d="M262.607 728.131L300.569 728.14L300.637 745.099L247.43 739.34C247.274 737.851 247.286 735.966 247.556 734.5C247.794 733.209 248.084 732.825 249.205 732.17C251.392 730.892 253.092 731.628 255.296 732.304L262.607 728.131Z"/>
	<defs>
		<linearGradient id="gradient_0" gradientUnits="userSpaceOnUse" x1="336.36569" y1="733.01886" x2="325.94763" y2="685.63208">
			<stop offset="0" stop-color="#126ABE"/>
			<stop offset="1" stop-color="#1A9FD5"/>
		</linearGradient>
	</defs>
	<path fill="url(#gradient_0)" d="M320.83 685.714L342.329 685.678L342.379 760.763C341.777 757.479 342.041 753.843 342.042 750.504C342.045 744.688 342.058 738.872 342.073 733.056C335.048 733.237 327.502 732.903 320.577 734.004L320.83 685.714Z"/>
	<path fill="#061E49" d="M482.305 767.504L505.068 767.513C504.641 774.785 502.253 781.463 496.999 786.669C492.83 790.8 487.592 793.213 481.898 794.466C474.946 795.995 466.109 794.962 458.912 794.968C442.963 794.982 427.014 795.005 411.066 795.02L411.159 773.126C426.402 772.982 441.659 773.134 456.904 773.127C461.186 773.126 465.468 773.128 469.75 773.117C472.219 773.111 475.144 773.298 477.5 772.466C480.002 771.583 481.14 769.747 482.305 767.504Z"/>
	<path fill="#E43320" d="M223.086 736.72L223.036 726.611C223.017 714.852 224.824 705.252 233.537 696.662C245.535 684.832 260.068 685.5 275.698 685.495C284.087 685.492 292.476 685.497 300.865 685.506L300.842 709.044C291.002 708.999 281.162 708.959 271.322 708.929C266.605 708.915 261.1 708.393 256.469 709.226C254.012 709.669 251.843 710.813 250.078 712.579C245.888 716.77 246.605 722.625 246.65 728.077L262.607 728.131L255.296 732.304C253.092 731.628 251.392 730.892 249.205 732.17C248.084 732.825 247.794 733.209 247.556 734.5C247.286 735.966 247.274 737.851 247.43 739.34L223.086 736.72Z"/>
	<path fill="#061E49" d="M320.577 734.004C327.502 732.903 335.048 733.237 342.073 733.056C342.058 738.872 342.045 744.688 342.042 750.504C342.041 753.843 341.777 757.479 342.379 760.763C342.403 764.315 341.837 769.697 344.432 772.444C344.978 773.023 345.962 773.387 346.75 773.474C351.421 773.988 356.639 773.43 361.38 773.42C372.074 773.399 382.769 773.421 393.463 773.425L393.483 795.008C382.384 795.021 371.285 795.031 360.186 795.022C354.225 795.018 347.758 795.512 341.862 794.682L341 794.551C335.435 793.783 329.735 791.563 325.766 787.427C323.641 785.213 322.06 781.891 321.372 778.913C319.979 772.883 320.464 766.347 320.479 760.182C320.5 751.456 320.533 742.73 320.577 734.004Z"/>
	<path fill="#279DD1" d="M407.199 725.934L406.542 718.891C406.496 709.939 409.103 701.353 415.564 694.926C419.599 690.913 425.111 687.649 430.651 686.317C438.327 684.472 447.86 685.58 455.824 685.575C471.218 685.565 486.611 685.578 502.004 685.597L501.973 707.413C487.816 707.501 473.639 707.26 459.481 707.172C454.852 707.142 450.221 707.111 445.592 707.125C443.124 707.132 440.113 706.974 437.812 707.983C436.045 708.756 434.223 710.612 433.55 712.427C431.759 717.254 432.504 721.379 434.703 725.887L407.199 725.934Z"/>
	<path fill="#136CB6" d="M434.703 725.887C436.166 726.989 437.943 728.437 439.76 728.831C442.664 729.461 446.342 729.08 449.312 729.061C457.224 729.009 465.136 728.856 473.048 728.757C477.8 728.698 483.041 728.165 487.669 729.428C496.484 731.834 503.348 740.096 504.645 749.017C505.516 755.006 505.075 761.465 505.068 767.513L482.305 767.504C482.995 764.481 483.356 761.6 482.546 758.553C481.856 755.957 480.489 753.529 477.967 752.36C474.988 750.977 470.871 751.479 467.648 751.474C460.968 751.462 454.289 751.462 447.609 751.454C438.051 751.442 429.623 752.051 420.97 747.139C412.631 742.405 409.683 734.672 407.199 725.934L434.703 725.887Z"/>
	<path fill="#061E49" d="M223.086 736.72L247.43 739.34L300.637 745.099L300.557 749.5C298.681 750.769 253.319 749.925 247.15 750.001L247.034 752.608C246.92 758.633 246.09 765.087 250.785 769.702C252.656 771.541 254.677 772.547 257.236 773.087C262.37 774.171 268.639 773.558 273.915 773.581C284.603 773.627 295.292 773.66 305.98 773.69L306.315 794.885C296.98 794.9 287.646 794.91 278.311 794.902C262.165 794.889 246.175 795.893 233.72 783.607C220.582 770.648 223.077 753.559 223.086 736.72Z"/>
	<path fill="#061E49" d="M817.662 738.151L842.887 738.459C839.515 748.08 834.575 755.977 825.001 760.424C822.461 761.604 819.999 762.156 817.25 762.578L816.476 762.705C811.722 763.435 806.55 763.054 801.74 763.042C793.269 763.021 784.798 763.011 776.327 762.99L776.098 796.506L751.481 796.403L751.477 740.031L774.632 740.145C781.295 740.339 787.986 740.299 794.653 740.357C802.262 740.423 810.713 741.652 817.662 738.151Z"/>
	<path fill="#061E49" d="M522.803 740.671L610.478 740.602L610.385 795.31L585.494 795.339L585.475 752.238L547.341 752.421L547.315 795.479L522.605 795.443L522.803 740.671Z"/>
	<path fill="#E43320" d="M625.908 740.136C626.261 724.813 630.412 711.934 640.833 700.536C650.467 689.997 664.368 685.415 678.294 684.815C693.135 684.175 709.223 687.656 720.368 698.037C732.243 709.099 735.474 724.435 736.146 740.021L711.518 740.056L711.221 736.222C710.367 726.499 707.233 716.975 699.341 710.696C693.332 705.914 684.934 704.238 677.441 705.32L676.5 705.464C671.023 706.261 665.722 708.541 661.559 712.242C653.116 719.748 651.496 729.595 650.918 740.343L625.908 740.136Z"/>
	<path fill="#E43320" d="M522.829 685.646L547.139 685.598L547.057 725.104L585.631 725.028L585.71 685.746L610.502 685.813L610.478 740.602L522.803 740.671L522.829 685.646Z"/>
	<path fill="#061E49" d="M711.518 740.056L736.146 740.021C735.489 756.45 732.591 771.459 719.934 783.054C707.626 794.329 692.135 798.338 675.75 797.402C661.586 796.594 647.68 789.728 638.486 778.965C633.095 772.653 629.495 765.005 627.449 757L627.198 756.062C625.889 750.972 625.891 745.371 625.908 740.136L650.918 740.343C651.222 750.601 653.353 760.778 661.148 768.083C667.631 774.16 674.961 775.861 683.639 775.472C690.783 775.151 697.839 772.439 702.733 767.09C709.42 759.782 711.485 749.685 711.518 740.056Z"/>
	<path fill="#FEFEFE" d="M650.918 740.343C651.496 729.595 653.116 719.748 661.559 712.242C665.722 708.541 671.023 706.261 676.5 705.464L677.441 705.32C684.934 704.238 693.332 705.914 699.341 710.696C707.233 716.975 710.367 726.499 711.221 736.222L711.518 740.056C711.485 749.685 709.42 759.782 702.733 767.09C697.839 772.439 690.783 775.151 683.639 775.472C674.961 775.861 667.631 774.16 661.148 768.083C653.353 760.778 651.222 750.601 650.918 740.343Z"/>
	<path fill="#E43320" d="M751.387 685.899C764.423 685.82 777.46 685.832 790.496 685.84C797.783 685.845 805.648 685.297 812.855 686.323L813.75 686.459L817.75 687.094C826.531 689.182 833.943 694.159 838.641 701.905C843.33 709.635 843.609 716.809 843.727 725.621C843.785 729.968 843.927 734.199 842.887 738.459L817.662 738.151C810.713 741.652 802.262 740.423 794.653 740.357C787.986 740.299 781.295 740.339 774.632 740.145L751.477 740.031L751.387 685.899Z"/>
	<path fill="#FEFEFE" d="M774.573 707.423C782.639 707.425 790.705 707.432 798.771 707.449C802.619 707.457 807.407 706.947 811.131 707.77C812.871 708.155 814.814 708.95 816.25 710.018C819.405 712.366 820.283 715.349 820.922 719.057C822.056 725.633 821.479 732.569 817.662 738.151C810.713 741.652 802.262 740.423 794.653 740.357C787.986 740.299 781.295 740.339 774.632 740.145L774.573 707.423Z"/>
	<path fill="#E43320" d="M325.304 273.028C322.362 276.343 319.462 279.91 316.029 282.737C309.165 288.39 301.042 290.483 292.25 289.477C283.585 288.486 275.491 283.682 270.263 276.754C265.241 270.099 262.908 261.53 264.234 253.247L264.362 252.5C265.545 245.128 268.787 239.034 274.249 233.941C280.253 228.342 289.049 224.78 297.293 225.156C305.979 225.552 313.715 229.018 319.725 235.338C321.935 237.662 323.709 240.379 325.892 242.761C330.442 243.594 335.051 243.867 339.571 244.858C348.643 246.845 357.7 251.94 364.508 258.2C373.701 266.652 380.053 277.505 382.212 289.874C383.124 295.106 382.856 300.637 382.863 305.937C382.877 317.104 382.37 328.355 382.827 339.508C380.875 346.518 379.292 353.662 378.676 360.928C377.691 372.558 378.471 384.827 378.474 396.537C378.479 413.224 378.561 429.914 378.496 446.6C333.507 446.569 288.517 446.573 243.528 446.579C230.564 446.581 217.6 446.583 204.635 446.573C195.752 446.567 186.494 447.161 177.674 446.484C174.249 446.222 170.817 445.276 167.428 444.697L163.891 443.032C153.86 437.808 145.278 428.601 142.087 417.619C139.058 407.196 140.449 395.758 145.891 386.36C152.188 375.486 162.049 368.711 174 365.339C181.192 363.309 190.257 364.277 197.735 364.278C209.097 364.281 220.459 364.294 231.821 364.306C272.228 364.349 312.635 364.271 353.042 364.232C353.058 348.771 353.068 333.309 353.064 317.848C353.062 311.076 353.913 302.896 352.665 296.269C351.88 292.104 350.029 287.603 347.392 284.25C341.695 277.006 334.172 274.202 325.304 273.028Z"/>
	<path fill="#FEFEFE" d="M182.941 393.223L353.074 393.06L353.055 417.592L340.25 417.58C304.905 417.557 269.559 417.484 234.215 417.631C222.378 417.68 210.541 417.768 198.704 417.839C193.058 417.873 187.08 418.288 181.468 417.856C178.92 417.66 176.947 417.348 174.882 415.747C171.901 413.436 170.455 409.991 170.098 406.312C169.762 402.84 170.93 399.57 173.237 396.991C176.068 393.825 178.973 393.509 182.941 393.223Z"/>
	<path fill="#061E49" d="M382.827 339.508C384.795 335.207 386.413 330.781 388.664 326.612C400.015 305.587 418.045 288.527 440.602 280.108C449.677 276.72 459.837 274.484 469.497 273.825C476.574 273.342 483.786 273.595 490.882 273.607C502.935 273.626 514.988 273.67 527.041 273.682C564.139 273.716 601.237 273.711 638.335 273.704C672.281 273.698 706.228 273.642 740.174 273.616C750.608 273.608 761.042 273.602 771.475 273.604C778.427 273.605 785.443 273.403 792.376 273.985C803.705 274.935 814.787 278.273 825.092 283.018C849.235 294.134 867.689 315.012 876.774 339.875C879.886 348.39 881.864 357.461 882.57 366.494C883.552 379.069 882.971 392.038 882.968 404.656C882.964 426.737 882.975 448.817 882.981 470.898C882.986 489.836 882.989 508.774 882.98 527.712C882.975 538.743 883.553 550.13 882.295 561.103C880.997 572.424 877.335 583.663 872.459 593.927C861.25 617.523 840.282 636.083 815.709 644.766C807.32 647.731 798.655 649.825 789.756 650.447C783.261 650.901 776.557 650.595 770.039 650.595C758.167 650.595 746.295 650.592 734.423 650.588C697.321 650.578 660.218 650.566 623.116 650.572C588.672 650.579 554.227 650.583 519.783 650.592C509.007 650.595 498.232 650.602 487.457 650.595C481.132 650.591 474.636 650.885 468.339 650.375C459.233 649.637 449.834 646.798 441.628 642.831C437.308 640.742 433.35 638.356 429.429 635.596C388.249 635.628 347.069 635.654 305.889 635.663C293.878 635.665 281.867 635.666 269.856 635.661C263.399 635.659 256.416 636.174 250.034 635.321C244.963 634.642 239.366 632.268 235.695 628.657C233.727 626.721 232.204 624.277 231.112 621.75C228.046 614.655 225.654 607.109 223.011 599.839C217.461 584.576 212.064 569.257 206.518 553.992C196.848 527.375 187.294 500.725 177.922 474.003C174.492 464.222 170.616 454.556 167.428 444.697C170.817 445.276 174.249 446.222 177.674 446.484C186.494 447.161 195.752 446.567 204.635 446.573C217.6 446.583 230.564 446.581 243.528 446.579C288.517 446.573 333.507 446.569 378.496 446.6C378.561 429.914 378.479 413.224 378.474 396.537C378.471 384.827 377.691 372.558 378.676 360.928C379.292 353.662 380.875 346.518 382.827 339.508Z"/>
	<path fill="#FEFEFE" d="M264.236 568.549C279.646 568.104 295.155 568.546 310.576 568.518C317.715 568.505 324.854 568.481 331.992 568.489C335.103 568.493 339.289 568 342.25 569.067C345.714 570.315 348.445 573.359 349.924 576.677C351.209 579.56 350.576 583.383 349.3 586.157C347.609 589.834 345.286 591.691 341.512 593.026C335.32 593.86 328.69 593.541 322.428 593.581C310.974 593.655 299.517 593.64 288.062 593.633C282.567 593.63 277.072 593.645 271.578 593.601C269.078 593.58 265.736 593.906 263.353 593.094C260.056 591.97 257.069 589.648 255.655 586.413C254.158 582.988 254.072 578.904 255.616 575.493C257.391 571.571 260.398 569.948 264.236 568.549Z"/>
	<path fill="#FEFEFE" d="M237.575 501.549C254.436 500.472 272.003 501.398 288.915 501.463C299.723 501.506 310.531 501.554 321.34 501.612C325.57 501.635 329.801 501.656 334.031 501.688C337.033 501.711 340.702 501.53 343.461 502.829C346.679 504.343 348.762 506.936 349.937 510.292C351.014 513.37 350.863 517.521 349.339 520.398C347.478 523.912 345.211 525.869 341.385 526.935C334.271 527.302 327.038 527.042 319.913 527.034C307.322 527.021 294.732 526.992 282.141 527.007C271.86 527.018 261.579 527.037 251.298 527.023C246.936 527.017 241.093 527.689 236.925 526.548C234.031 525.755 231.574 523.582 230.093 521.011C228.512 518.265 227.848 514.125 228.767 511.015L228.935 510.5L229.381 509.158C230.973 504.975 233.641 503.201 237.575 501.549Z"/>
	<path fill="#FEFEFE" d="M440.61 426.776L440.588 425.468C440.472 412.919 440.514 400.364 440.487 387.814C440.473 380.992 439.488 372.444 441.084 365.855C442.716 359.12 446.058 353.082 450.946 348.165C455.82 343.264 461.699 339.949 468.516 338.543C472.198 337.784 476.192 337.998 479.94 337.984C486.017 337.961 492.093 337.937 498.17 337.913C519.799 337.826 541.423 337.67 563.052 337.706C562.713 339.626 562.272 340.032 560.899 341.37C556.809 345.355 551.77 348.583 547.39 352.278C538.786 359.533 530.489 368.254 523.8 377.276C513.013 391.825 505.199 409.011 501.704 426.786L440.61 426.776Z"/>
	<path fill="#FEFEFE" d="M691.162 338.235C714.007 337.652 736.939 338.016 759.794 338.01C766.137 338.008 772.481 338.025 778.824 338.001C783.06 337.985 787.707 337.622 791.874 338.429C798.19 339.651 804.502 342.701 809.155 347.18C815.394 353.187 819.317 361.25 819.449 369.969L819.498 427.323L753.756 427.053C746.564 395.488 728.565 370.702 703.954 350.217C700.977 347.739 697.926 345.347 694.841 343.005C693.334 341.861 691.351 340.724 690.509 339L691.162 338.235Z"/>
	<path fill="#FEFEFE" d="M755.519 456.499L819.513 456.428C819.537 479.361 819.555 502.294 819.544 525.227C819.541 531.191 819.522 537.156 819.538 543.12C819.548 547.082 819.86 551.288 819.085 555.183C817.568 562.812 813.908 569.966 808.394 575.467C802.257 581.59 794.477 585.371 786.101 587.346C781.133 588.518 775.507 588.062 770.417 588.064C762.476 588.066 754.534 588.065 746.593 588.064C716.366 588.059 686.138 588.038 655.91 588.033C615.561 588.025 575.212 588.055 534.862 588.062C522.07 588.064 509.278 588.066 496.485 588.065C489.662 588.065 482.548 588.458 475.75 587.876C469.691 587.357 463.465 584.976 458.341 581.726C449.588 576.174 443.366 567.036 441.287 556.916C440.329 552.248 440.509 547.556 440.5 542.823C440.489 536.306 440.487 529.79 440.486 523.273C440.484 501.257 440.487 479.241 440.486 457.224L499.502 457.361C500.422 462.63 500.919 467.897 502.055 473.146C506.589 494.115 515.755 513.464 530.263 529.416C553.175 554.609 586.236 571.202 620.442 572.829C655.873 574.515 689.859 562.951 716.081 538.788C738.037 518.556 754.303 486.592 755.519 456.499Z"/>
	<path fill="#E43320" d="M563.412 309.564L691.947 309.667C691.869 315.54 691.792 321.413 691.761 327.288C691.743 330.694 692.249 334.996 691.162 338.235L690.509 339C691.351 340.724 693.334 341.861 694.841 343.005C697.926 345.347 700.977 347.739 703.954 350.217C728.565 370.702 746.564 395.488 753.756 427.053C755.069 437.045 755.537 446.408 755.519 456.499C754.303 486.592 738.037 518.556 716.081 538.788C689.859 562.951 655.873 574.515 620.442 572.829C586.236 571.202 553.175 554.609 530.263 529.416C515.755 513.464 506.589 494.115 502.055 473.146C500.919 467.897 500.422 462.63 499.502 457.361C499.461 446.836 499.983 437.188 501.704 426.786C505.199 409.011 513.013 391.825 523.8 377.276C530.489 368.254 538.786 359.533 547.39 352.278C551.77 348.583 556.809 345.355 560.899 341.37C562.272 340.032 562.713 339.626 563.052 337.706L563.412 309.564Z"/>
	<path fill="#FEFEFE" d="M691.696 369.163L714.276 368.997C707.29 411.09 699.919 453.333 691.655 495.19C690.588 500.595 689.598 506.008 688.666 511.438C688.076 514.876 687.668 518.896 686.269 522.113C685.286 524.374 683.361 525.914 681.023 526.649C677.27 527.83 670.748 526.942 666.679 526.941C655.379 526.938 644.078 526.943 632.777 526.94C621.034 526.937 609.291 526.94 597.548 526.948C590.913 526.952 584.148 527.231 577.53 526.84C575.662 526.73 573.702 526.532 572.088 525.504C570.688 524.613 569.182 523.328 568.521 521.769C567.391 519.101 567.113 515.644 566.535 512.801C565.093 505.701 563.701 498.591 562.308 491.482L537.173 369.415L560.175 369.376L567.702 403.014L685.737 402.963L691.696 369.163Z"/>
	<path fill="#E43320" d="M587.247 486.745L602.099 486.722C602.11 491.372 602.117 496.022 602.11 500.672C602.107 502.6 602.396 504.943 601.755 506.75L599.625 506.868L588.339 506.721C587.398 503.39 583.649 489.062 584.5 486.916L587.247 486.745Z"/>
	<path fill="#E43320" d="M652.494 486.932L671.254 486.894L668.074 504.392L667.573 506.25C665.817 507.706 655.281 506.948 652.48 506.951L652.494 486.932Z"/>
	<path fill="#E43320" d="M652.704 453.558L677.378 453.539L674.232 471.111C673.986 472.241 674.097 472.325 673.25 473.211L652.689 473.327L652.704 453.558Z"/>
	<path fill="#E43320" d="M577.556 453.485L602.038 453.515L602.068 473.482L581.298 473.452L577.556 453.485Z"/>
	<path fill="#E43320" d="M614.911 420.834L640.473 420.892L640.447 439.642L614.903 439.717L614.911 420.834Z"/>
	<path fill="#E43320" d="M615.007 453.924L639.894 453.873L639.956 473.43L615.045 473.384L615.007 453.924Z"/>
	<path fill="#E43320" d="M615.213 486.953L639.908 486.98L639.879 506.865L615.285 506.879L615.213 486.953Z"/>
	<path fill="#E43320" d="M652.693 420.654L682.812 420.719L679.192 437.866C679.06 438.824 678.919 439.156 678.25 439.857L652.608 439.887L652.693 420.654Z"/>
	<path fill="#E43320" d="M570.98 420.667L602.172 420.872L602.132 439.96L574.464 439.911L570.98 420.667Z"/>
</svg>
